<svg xmlns="http://www.w3.org/2000/svg" viewBox="0 0 392.63 110.4"><title>rageHook</title><g id="Layer_2" data-name="Layer 2"><g id="Layer_1-2" data-name="Layer 1"><path d="M0,4.16A84.11,84.11,0,0,1,15.45,2.87c8.6,0,14.15,1.57,18,5.09a15.49,15.49,0,0,1,4.91,11.83c0,8.24-5.18,13.69-11.75,15.91V36c4.81,1.67,7.68,6.11,9.16,12.58,2,8.7,3.51,14.71,4.81,17.11H32.28c-1-1.75-2.4-7.12-4.16-14.89-1.85-8.6-5.18-11.84-12.49-12.12H8.05v27H0Zm8.05,28.4h8.23c8.6,0,14.06-4.72,14.06-11.84,0-8-5.83-11.56-14.34-11.66a32.9,32.9,0,0,0-7.95.75Z" fill="#231f20"/><path d="M75.38,65.67,74.74,60h-.28a16.67,16.67,0,0,1-13.69,6.66c-9.07,0-13.69-6.38-13.69-12.86C47.08,43,56.7,37.09,74,37.18v-.92c0-3.7-1-10.36-10.18-10.36a22.24,22.24,0,0,0-11.65,3.33l-1.85-5.37a27.81,27.81,0,0,1,14.7-4c13.69,0,17,9.34,17,18.31V54.94a63.5,63.5,0,0,0,.74,10.73Zm-1.2-22.84c-8.88-.19-19,1.38-19,10.08,0,5.27,3.51,7.77,7.68,7.77a11.15,11.15,0,0,0,10.82-7.49,8.47,8.47,0,0,0,.46-2.59Z" fill="#231f20"/><path d="M133.75,20.9c-.19,3.24-.37,6.85-.37,12.31v26c.37,10-5.81,39.21-10.15,43.89-4.59,4.94-7.21,8.72-12.52,6.8C104.86,107.77,99,89.48,95.43,87.07l2.17-9c3,1.85,7.43,20.27,13.53,22.64,7.76,3,14.29-26.42,14.29-37.71V58h-.18c-2.5,4.16-7.31,7.49-14.25,7.49-11.1,0-19-9.44-19-21.83,0-15.17,9.89-23.77,20.16-23.77,7.77,0,12,4.07,14,7.77h.18l.37-6.76Zm-8.42,17.67a11.59,11.59,0,0,0-.46-3.7,11.72,11.72,0,0,0-11.38-8.6c-7.77,0-13.32,6.57-13.32,16.93,0,8.78,4.44,16.09,13.23,16.09A11.9,11.9,0,0,0,124.68,51a14.26,14.26,0,0,0,.65-4.35Z" fill="#231f20"/><path d="M151.41,44.77c.19,11,7.22,15.54,15.36,15.54A29.51,29.51,0,0,0,179.16,58l1.39,5.82a36.18,36.18,0,0,1-14.9,2.78c-13.78,0-22-9.07-22-22.57s8-24.14,21-24.14c14.61,0,18.5,12.85,18.5,21.09a31.09,31.09,0,0,1-.28,3.79Zm23.86-5.83c.1-5.18-2.12-13.23-11.28-13.23-8.23,0-11.84,7.59-12.49,13.23Z" fill="#231f20"/><path d="M201.54,3.33V29.41H231.7V3.33h8.14V65.67H231.7V36.44H201.54V65.67h-8V3.33Z" fill="#231f20"/><path d="M294,42.92c0,16.56-11.47,23.77-22.3,23.77-12.11,0-21.46-8.88-21.46-23,0-15,9.81-23.77,22.2-23.77C285.34,19.89,294,29.23,294,42.92Zm-35.52.46c0,9.81,5.64,17.21,13.59,17.21,7.77,0,13.6-7.31,13.6-17.39,0-7.59-3.79-17.21-13.41-17.21S258.52,34.87,258.52,43.38Z" fill="#231f20"/><path d="M344.81,42.92c0,16.56-11.46,23.77-22.29,23.77-12.11,0-21.46-8.88-21.46-23,0-15,9.81-23.77,22.2-23.77C336.12,19.89,344.81,29.23,344.81,42.92Zm-35.51.46c0,9.81,5.64,17.21,13.59,17.21,7.77,0,13.6-7.31,13.6-17.39,0-7.59-3.79-17.21-13.41-17.21S309.3,34.87,309.3,43.38Z" fill="#231f20"/><path d="M363.13,41.44h.18c1.11-1.57,2.68-3.52,4-5.09L380.42,20.9h9.81l-17.3,18.41,19.7,26.36h-9.89L367.29,44.21l-4.16,4.63V65.67h-8.05V0h8.05Z" fill="#231f20"/></g></g></svg>