<svg fill="black" xmlns="http://www.w3.org/2000/svg" xmlns:xlink="http://www.w3.org/1999/xlink" viewBox="0 0 437.05 364.12">
    <defs>
        <style>.cls-1,.cls-2,.cls-4,.cls-5{fill:#fff;}.cls-1,.cls-2,.cls-3,.cls-4,.cls-7{stroke:#231f20;stroke-miterlimit:10;}.cls-2{fill-rule:evenodd;}.cls-3{fill:#1baa4a;stroke-width:3px;}.cls-4{stroke-width:0.75px;}.cls-6{clip-path:url(#clip-path);}.cls-7{fill:none;}.cls-8{clip-path:url(#clip-path-2);}.cls-9{clip-path:url(#clip-path-3);}.cls-10{clip-path:url(#clip-path-4);}.cls-11{clip-path:url(#clip-path-5);}.cls-12{clip-path:url(#clip-path-6);}.cls-13{clip-path:url(#clip-path-7);}.cls-14{clip-path:url(#clip-path-8);}.cls-15{clip-path:url(#clip-path-9);}.cls-16{clip-path:url(#clip-path-10);}.cls-17{clip-path:url(#clip-path-11);}.cls-18{clip-path:url(#clip-path-12);}.cls-19{clip-path:url(#clip-path-13);}.cls-20{clip-path:url(#clip-path-14);}.cls-21{clip-path:url(#clip-path-15);}.cls-22{clip-path:url(#clip-path-16);}.cls-23{clip-path:url(#clip-path-17);}.cls-24{clip-path:url(#clip-path-18);}.cls-25{clip-path:url(#clip-path-19);}.cls-26{clip-path:url(#clip-path-20);}.cls-27{clip-path:url(#clip-path-21);}.cls-28{clip-path:url(#clip-path-22);}.cls-29{clip-path:url(#clip-path-23);}.cls-30{clip-path:url(#clip-path-24);}</style>
        <clipPath id="clip-path">
            <rect class="cls-1" x="260.83" y="40.62" width="1.82" height="1.83" />
        </clipPath>
        <clipPath id="clip-path-2">
            <rect class="cls-1" x="233.82" y="56.37" width="2.27" height="2.27" />
        </clipPath>
        <clipPath id="clip-path-3">
            <rect class="cls-1" x="218.07" y="57.73" width="1.83" height="1.82" />
        </clipPath>
        <clipPath id="clip-path-4">
            <rect class="cls-1" x="279.51" y="65.84" width="1.65" height="2.25" />
        </clipPath>
        <clipPath id="clip-path-5">
            <rect class="cls-1" x="304" y="82.5" width="2.78" height="2.5" />
        </clipPath>
        <clipPath id="clip-path-6">
            <rect class="cls-1" x="185.2" y="94.15" width="1.4" height="2.3" />
        </clipPath>
        <clipPath id="clip-path-7">
            <rect class="cls-1" x="187.46" y="99.58" width="1.83" height="3.21" />
        </clipPath>
        <clipPath id="clip-path-8">
            <rect class="cls-1" x="205.9" y="99.74" width="3.62" height="3.05" />
        </clipPath>
        <clipPath id="clip-path-9">
            <rect class="cls-1" x="333.13" y="100.46" width="2.47" height="2.76" />
        </clipPath>
        <clipPath id="clip-path-10">
            <rect class="cls-1" x="258.15" y="105.44" width="3.19" height="2.32" />
        </clipPath>
        <clipPath id="clip-path-11">
            <rect class="cls-1" x="184.7" y="117.62" width="11.77" height="65.29" />
        </clipPath>
        <clipPath id="clip-path-12">
            <rect class="cls-1" x="292.34" y="120.74" width="3.18" height="2.81" />
        </clipPath>
        <clipPath id="clip-path-13">
            <rect class="cls-1" x="243.74" y="126.62" width="1.36" height="24.31" />
        </clipPath>
        <clipPath id="clip-path-14">
            <rect class="cls-1" x="289.19" y="131.47" width="2.8" height="3.71" />
        </clipPath>
        <clipPath id="clip-path-15">
            <rect class="cls-1" x="232.02" y="132.49" width="3.7" height="3.58" />
        </clipPath>
        <clipPath id="clip-path-16">
            <rect class="cls-1" x="177.05" y="136.53" width="1.71" height="3.19" />
        </clipPath>
        <clipPath id="clip-path-17">
            <rect class="cls-1" x="316.64" y="145.66" width="2.75" height="2.14" />
        </clipPath>
        <clipPath id="clip-path-18">
            <rect class="cls-1" x="183.85" y="150.93" width="9.46" height="31.97" />
        </clipPath>
        <clipPath id="clip-path-19">
            <rect class="cls-1" x="306.59" y="151.38" width="1.88" height="26.3" />
        </clipPath>
        <clipPath id="clip-path-20">
            <rect class="cls-1" x="269.15" y="162.84" width="2.96" height="3.01" />
        </clipPath>
        <clipPath id="clip-path-21">
            <rect class="cls-1" x="224.86" y="163.54" width="2.22" height="3.22" />
        </clipPath>
        <clipPath id="clip-path-22">
            <rect class="cls-1" x="222.58" y="173" width="7.2" height="19.36" />
        </clipPath>
        <clipPath id="clip-path-23">
            <rect class="cls-1" x="302.61" y="187.38" width="2.77" height="3.25" />
        </clipPath>
        <clipPath id="clip-path-24">
            <rect class="cls-1" x="323.88" y="186.06" width="2.5" height="5.9" />
        </clipPath>
    </defs>
    <title>Asset 1</title>
    <g id="Layer_2" data-name="Layer 2">
        <g id="Layer_1-2" data-name="Layer 1">
            <path class="cls-2" d="M266.79.88c12.83-1.88,3,3.32,4.9,14.7,2.17,13.24,25.17,25.18,28.18,27C331.18,61,369.5,88.72,367.25,136.86c-.84,18-11.38,38.33-22.05,49-36.85,36.85-136.35,33.38-169.07-1.22-10.56-11.17-20.26-30.15-20.82-49-1-32.49,19.52-60.45,41.65-77.17,14.64-11.07,34.69-17,46.55-29.41,6.84-7.16,10.36-26.28,23.28-28.17" />
            <path class="cls-2" d="M234.86,208.58s31.1-21.38,34.69-90.83c0,0,23.72,37.56-21.35,93.79a75.41,75.41,0,0,1-8.72-.52c-6.44-1.23-4.62-2.44-4.62-2.44" />
            <path class="cls-2" d="M1.57,158.4c1.18-22.64,7.61-40.67,23-50.84,16.18-2.65,42.63,6.26,44-12.06-8.05-7.37-13.11,4-21.31,4.44-15.9.83-28.44-15-35.67-27,9.73-9.09,35.95-19.59,53.38-9.58,8,4.58,8.43,16,18.08,17.36,2-.67,2.24-2.86,4.41-3.37C86,66.35,74.65,66.55,69.32,60c-.39-6.36-4.82-14.33-1.27-20,.37-.59,4.71-.34,5.44-.32a22.84,22.84,0,0,1,5.58.79A25.72,25.72,0,0,1,89.4,46.35c6.45,5.88,11.4,15.21,12,24A26.52,26.52,0,0,1,100,80.8c-1.3,3.67-4.36,6.13-7.11,8.69a90,90,0,0,0-8.25,8.66,81.09,81.09,0,0,0-12.51,20.62c-3.62,8.75-6.14,17.91-9.9,26.61-1.66,3.82-3.48,8.35-6.75,11.12C41.17,168.57,14.63,161,1.57,158.4" />
            <path class="cls-3" d="M1.57,158.4c1.18-22.64,7.61-40.67,23-50.84,16.18-2.65,42.63,6.26,44-12.06-8.05-7.37-13.11,4-21.31,4.44-15.9.83-28.44-15-35.67-27,9.73-9.09,35.95-19.59,53.38-9.58,8,4.58,8.43,16,18.08,17.36,2-.67,2.24-2.86,4.41-3.37C86,66.35,74.65,66.55,69.32,60c-.39-6.36-4.82-14.33-1.27-20,.37-.59,4.71-.34,5.44-.32a22.84,22.84,0,0,1,5.58.79A25.72,25.72,0,0,1,89.4,46.35c6.45,5.88,11.4,15.21,12,24A26.52,26.52,0,0,1,100,80.8c-1.3,3.67-4.36,6.13-7.11,8.69a90,90,0,0,0-8.25,8.66,81.09,81.09,0,0,0-12.51,20.62c-3.62,8.75-6.14,17.91-9.9,26.61-1.66,3.82-3.48,8.35-6.75,11.12C41.17,168.57,14.63,161,1.57,158.4Z" />
            <path class="cls-1" d="M33.14,163.63c-9.63,0-19.73-2.19-27.09-3.79-1.65-.36-3.2-.69-4.58-1a.5.5,0,0,1-.39-.5c1.31-25,8.9-41.75,23.2-51.21a.4.4,0,0,1,.18-.07,50.34,50.34,0,0,1,8.22-.55c2.66,0,5.46.11,8.16.22s5.45.23,8.06.23c9.42,0,18.25-1.38,19.11-11.29a7.4,7.4,0,0,0-4.93-2.19c-2.43,0-4.73,1.53-7.16,3.15-2.65,1.77-5.39,3.6-8.7,3.77-.4,0-.81,0-1.22,0-15.31,0-27.42-14.84-34.89-27.3a.49.49,0,0,1,.09-.6c7.15-6.68,22.56-13.78,37-13.78a33.52,33.52,0,0,1,16.91,4.13c3.56,2,5.64,5.36,7.65,8.57,2.56,4.07,5,7.92,10.14,8.71a4.34,4.34,0,0,0,1.73-1.45A5.08,5.08,0,0,1,86.86,77c-1-6.28-5.38-8.6-10-11.06C74,64.4,71,62.83,69,60.27a.57.57,0,0,1-.11-.27,37.16,37.16,0,0,0-1.26-6.58c-1.19-4.78-2.43-9.73.06-13.68.2-.32.6-.62,3.22-.62.84,0,1.7,0,2.21.05l.43,0a23,23,0,0,1,5.7.81,26.18,26.18,0,0,1,10.52,6c6.8,6.19,11.57,15.72,12.17,24.28A26.9,26.9,0,0,1,100.41,81c-1.19,3.37-3.79,5.73-6.3,8l-.94.86A90.85,90.85,0,0,0,85,98.46,80.56,80.56,0,0,0,72.53,119C70.85,123,69.37,127.29,68,131.4c-1.63,4.68-3.31,9.53-5.32,14.17l-.3.68c-1.6,3.72-3.42,7.94-6.58,10.62-5.37,4.55-12.77,6.76-22.61,6.76M2.07,158c1.28.26,2.69.56,4.18.89,7.33,1.59,17.36,3.76,26.89,3.76s16.79-2.14,22-6.53c3-2.53,4.77-6.64,6.33-10.26l.29-.68c2-4.61,3.67-9.44,5.29-14.11,1.43-4.12,2.91-8.39,4.61-12.5A81.5,81.5,0,0,1,84.22,97.85a93.11,93.11,0,0,1,8.3-8.72l.94-.86c2.42-2.21,4.93-4.49,6-7.63a26.06,26.06,0,0,0,1.43-10.29c-.59-8.33-5.24-17.61-11.86-23.64a25.35,25.35,0,0,0-10.13-5.78,22,22,0,0,0-5.46-.78H73c-.53,0-1.35,0-2.17,0a7.25,7.25,0,0,0-2.43.21c-2.23,3.6-1.05,8.32.09,12.88a40.58,40.58,0,0,1,1.28,6.6c1.94,2.34,4.76,3.84,7.49,5.29,4.75,2.51,9.65,5.11,10.59,12.19a.49.49,0,0,1-.37.53,3.81,3.81,0,0,0-2.1,1.57,5.13,5.13,0,0,1-2.26,1.79.6.6,0,0,1-.23,0C77.23,80.35,74.56,76.11,72,72c-2-3.11-4-6.33-7.32-8.25a32.57,32.57,0,0,0-16.43-4c-14,0-29,6.78-36.09,13.25C19.5,85.17,31.28,99.5,46,99.49q.59,0,1.17,0c3-.15,5.67-1.91,8.22-3.61s5-3.31,7.69-3.31a8.51,8.51,0,0,1,5.76,2.6.52.52,0,0,1,.15.39c-.36,4.93-2.49,8.28-6.51,10.23-3.12,1.52-7.31,2.2-13.58,2.2-2.63,0-5.41-.12-8.1-.23s-5.48-.23-8.12-.23a50.92,50.92,0,0,0-8,.52c-13.89,9.24-21.3,25.6-22.65,50" />
            <path class="cls-1" d="M33.14,163.63c-9.63,0-19.73-2.19-27.09-3.79-1.65-.36-3.2-.69-4.58-1a.5.5,0,0,1-.39-.5c1.31-25,8.9-41.75,23.2-51.21a.4.4,0,0,1,.18-.07,50.34,50.34,0,0,1,8.22-.55c2.66,0,5.46.11,8.16.22s5.45.23,8.06.23c9.42,0,18.25-1.38,19.11-11.29a7.4,7.4,0,0,0-4.93-2.19c-2.43,0-4.73,1.53-7.16,3.15-2.65,1.77-5.39,3.6-8.7,3.77-.4,0-.81,0-1.22,0-15.31,0-27.42-14.84-34.89-27.3a.49.49,0,0,1,.09-.6c7.15-6.68,22.56-13.78,37-13.78a33.52,33.52,0,0,1,16.91,4.13c3.56,2,5.64,5.36,7.65,8.57,2.56,4.07,5,7.92,10.14,8.71a4.34,4.34,0,0,0,1.73-1.45A5.08,5.08,0,0,1,86.86,77c-1-6.28-5.38-8.6-10-11.06C74,64.4,71,62.83,69,60.27a.57.57,0,0,1-.11-.27,37.16,37.16,0,0,0-1.26-6.58c-1.19-4.78-2.43-9.73.06-13.68.2-.32.6-.62,3.22-.62.84,0,1.7,0,2.21.05l.43,0a23,23,0,0,1,5.7.81,26.18,26.18,0,0,1,10.52,6c6.8,6.19,11.57,15.72,12.17,24.28A26.9,26.9,0,0,1,100.41,81c-1.19,3.37-3.79,5.73-6.3,8l-.94.86A90.85,90.85,0,0,0,85,98.46,80.56,80.56,0,0,0,72.53,119C70.85,123,69.37,127.29,68,131.4c-1.63,4.68-3.31,9.53-5.32,14.17l-.3.68c-1.6,3.72-3.42,7.94-6.58,10.62C50.38,161.42,43,163.63,33.14,163.63ZM2.07,158c1.28.26,2.69.56,4.18.89,7.33,1.59,17.36,3.76,26.89,3.76s16.79-2.14,22-6.53c3-2.53,4.77-6.64,6.33-10.26l.29-.68c2-4.61,3.67-9.44,5.29-14.11,1.43-4.12,2.91-8.39,4.61-12.5A81.5,81.5,0,0,1,84.22,97.85a93.11,93.11,0,0,1,8.3-8.72l.94-.86c2.42-2.21,4.93-4.49,6-7.63a26.06,26.06,0,0,0,1.43-10.29c-.59-8.33-5.24-17.61-11.86-23.64a25.35,25.35,0,0,0-10.13-5.78,22,22,0,0,0-5.46-.78H73c-.53,0-1.35,0-2.17,0a7.25,7.25,0,0,0-2.43.21c-2.23,3.6-1.05,8.32.09,12.88a40.58,40.58,0,0,1,1.28,6.6c1.94,2.34,4.76,3.84,7.49,5.29,4.75,2.51,9.65,5.11,10.59,12.19a.49.49,0,0,1-.37.53,3.81,3.81,0,0,0-2.1,1.57,5.13,5.13,0,0,1-2.26,1.79.6.6,0,0,1-.23,0C77.23,80.35,74.56,76.11,72,72c-2-3.11-4-6.33-7.32-8.25a32.57,32.57,0,0,0-16.43-4c-14,0-29,6.78-36.09,13.25C19.5,85.17,31.28,99.5,46,99.49q.59,0,1.17,0c3-.15,5.67-1.91,8.22-3.61s5-3.31,7.69-3.31a8.51,8.51,0,0,1,5.76,2.6.52.52,0,0,1,.15.39c-.36,4.93-2.49,8.28-6.51,10.23-3.12,1.52-7.31,2.2-13.58,2.2-2.63,0-5.41-.12-8.1-.23s-5.48-.23-8.12-.23a50.92,50.92,0,0,0-8,.52C10.83,117.26,3.42,133.62,2.07,158Z" />
            <path class="cls-2" d="M435.54,115.12c.14,22.08-5.23,40-20,50.87-16,3.6-42.89-3.39-43.17,14.5,8.46,6.66,12.84-4.73,21-5.67,15.81-1.8,29.24,12.76,37.17,24-9.18,9.45-34.74,21.31-52.72,12.69-8.22-3.95-9.34-15-19.05-15.74-1.94.78-2.07,2.92-4.2,3.56,2.09,10.57,13.35,9.66,19.05,15.73.76,6.16,5.64,13.63,2.43,19.33-.33.6-4.68.63-5.41.66a22.94,22.94,0,0,1-5.61-.42,25.64,25.64,0,0,1-10.65-5.07c-6.78-5.31-12.26-14.07-13.38-22.54a25.07,25.07,0,0,1,.84-10.29c1.08-3.64,4-6.23,6.59-8.89a89.81,89.81,0,0,0,7.72-8.94,79,79,0,0,0,11.29-20.83c3.1-8.74,5.08-17.81,8.33-26.5,1.43-3.81,3-8.34,6.09-11.24,13.53-12.64,40.46-7,53.64-5.24" />
            <path class="cls-3" d="M435.54,115.12c.14,22.08-5.23,40-20,50.87-16,3.6-42.89-3.39-43.17,14.5,8.46,6.66,12.84-4.73,21-5.67,15.81-1.8,29.24,12.76,37.17,24-9.18,9.45-34.74,21.31-52.72,12.69-8.22-3.95-9.34-15-19.05-15.74-1.94.78-2.07,2.92-4.2,3.56,2.09,10.57,13.35,9.66,19.05,15.73.76,6.16,5.64,13.63,2.43,19.33-.33.6-4.68.63-5.41.66a22.94,22.94,0,0,1-5.61-.42,25.64,25.64,0,0,1-10.65-5.07c-6.78-5.31-12.26-14.07-13.38-22.54a25.07,25.07,0,0,1,.84-10.29c1.08-3.64,4-6.23,6.59-8.89a89.81,89.81,0,0,0,7.72-8.94,79,79,0,0,0,11.29-20.83c3.1-8.74,5.08-17.81,8.33-26.5,1.43-3.81,3-8.34,6.09-11.24C395.43,107.72,422.36,113.39,435.54,115.12Z" />
            <path class="cls-1" d="M369.57,235.59a23.08,23.08,0,0,1-4.6-.45A26.41,26.41,0,0,1,354.12,230c-7.14-5.59-12.46-14.56-13.56-22.85a25.75,25.75,0,0,1,.85-10.49c1-3.35,3.45-5.82,5.83-8.2l.88-.9a88,88,0,0,0,7.69-8.9A78.06,78.06,0,0,0,367,157.93c1.45-4.07,2.67-8.3,3.86-12.39,1.35-4.65,2.74-9.47,4.48-14.11l.25-.68c1.39-3.72,2.95-7.93,6-10.74,5.86-5.48,14.64-8.14,26.84-8.14A155.09,155.09,0,0,1,431,114c1.66.24,3.23.47,4.63.65a.48.48,0,0,1,.42.47c.15,24.4-6.45,41.16-20.17,51.27a.37.37,0,0,1-.18.08c-4.82,1.08-10.66,1.22-16.32,1.35-13.43.3-26.12.59-26.47,12.45a7.72,7.72,0,0,0,4.67,1.83c2.58,0,4.89-1.72,7.34-3.53s5.17-3.84,8.46-4.22a24.88,24.88,0,0,1,2.74-.15c14.66,0,27.06,13.26,34.87,24.39a.46.46,0,0,1-.05.61C423.37,207,406.75,215,392,215a32.84,32.84,0,0,1-14.36-3c-3.67-1.76-6-4.85-8.14-7.85-2.79-3.8-5.42-7.38-10.63-7.83a4.38,4.38,0,0,0-1.64,1.53,5.19,5.19,0,0,1-2.08,1.85c1.36,6,5.87,8,10.64,10.09,2.94,1.3,6,2.63,8.2,5a.53.53,0,0,1,.13.27,35.29,35.29,0,0,0,1.64,6.31c1.47,4.58,3,9.31.73,13.32-.27.49-1.21.78-5.38.89h-.43c-.38,0-.75,0-1.13,0m38.84-122.75c-11.94,0-20.51,2.57-26.18,7.88-2.84,2.65-4.37,6.75-5.71,10.37l-.26.68c-1.72,4.61-3.11,9.4-4.45,14-1.19,4.1-2.42,8.34-3.88,12.45a78.94,78.94,0,0,1-11.35,21,89.68,89.68,0,0,1-7.77,9l-.89.9c-2.29,2.3-4.65,4.68-5.58,7.79a24.51,24.51,0,0,0-.82,10.09c1.06,8,6.24,16.77,13.19,22.22a25.46,25.46,0,0,0,10.46,5,22.42,22.42,0,0,0,5.49.41h.45c3.45-.1,4.36-.31,4.59-.45,2-3.64.56-8.14-.84-12.5a37.28,37.28,0,0,1-1.66-6.33c-2.08-2.16-5-3.43-7.78-4.66-4.89-2.15-9.94-4.37-11.29-11.2a.48.48,0,0,1,.34-.56,3.79,3.79,0,0,0,2-1.66,5.14,5.14,0,0,1,2.15-1.88.83.83,0,0,1,.22,0c5.73.43,8.63,4.4,11.45,8.23,2.12,2.9,4.32,5.89,7.77,7.55A32,32,0,0,0,392,214c15.72,0,31.48-8.81,37.93-15.24-7.7-10.87-19.75-23.65-33.85-23.65a23.06,23.06,0,0,0-2.63.15c-3,.35-5.55,2.22-8,4s-5,3.72-7.91,3.72a8.78,8.78,0,0,1-5.46-2.18.46.46,0,0,1-.18-.38c.2-13,14-13.34,27.42-13.65,5.57-.13,11.32-.26,16-1.3,13.32-9.86,19.76-26.22,19.69-50-1.29-.17-2.72-.38-4.22-.6a155.17,155.17,0,0,0-22.43-2.1" />
            <path class="cls-4" d="M369.57,235.59a23.08,23.08,0,0,1-4.6-.45A26.41,26.41,0,0,1,354.12,230c-7.14-5.59-12.46-14.56-13.56-22.85a25.75,25.75,0,0,1,.85-10.49c1-3.35,3.45-5.82,5.83-8.2l.88-.9a88,88,0,0,0,7.69-8.9A78.06,78.06,0,0,0,367,157.93c1.45-4.07,2.67-8.3,3.86-12.39,1.35-4.65,2.74-9.47,4.48-14.11l.25-.68c1.39-3.72,2.95-7.93,6-10.74,5.86-5.48,14.64-8.14,26.84-8.14A155.09,155.09,0,0,1,431,114c1.66.24,3.23.47,4.63.65a.48.48,0,0,1,.42.47c.15,24.4-6.45,41.16-20.17,51.27a.37.37,0,0,1-.18.08c-4.82,1.08-10.66,1.22-16.32,1.35-13.43.3-26.12.59-26.47,12.45a7.72,7.72,0,0,0,4.67,1.83c2.58,0,4.89-1.72,7.34-3.53s5.17-3.84,8.46-4.22a24.88,24.88,0,0,1,2.74-.15c14.66,0,27.06,13.26,34.87,24.39a.46.46,0,0,1-.05.61C423.37,207,406.75,215,392,215a32.84,32.84,0,0,1-14.36-3c-3.67-1.76-6-4.85-8.14-7.85-2.79-3.8-5.42-7.38-10.63-7.83a4.38,4.38,0,0,0-1.64,1.53,5.19,5.19,0,0,1-2.08,1.85c1.36,6,5.87,8,10.64,10.09,2.94,1.3,6,2.63,8.2,5a.53.53,0,0,1,.13.27,35.29,35.29,0,0,0,1.64,6.31c1.47,4.58,3,9.31.73,13.32-.27.49-1.21.78-5.38.89h-.43C370.32,235.58,370,235.59,369.57,235.59Zm38.84-122.75c-11.94,0-20.51,2.57-26.18,7.88-2.84,2.65-4.37,6.75-5.71,10.37l-.26.68c-1.72,4.61-3.11,9.4-4.45,14-1.19,4.1-2.42,8.34-3.88,12.45a78.94,78.94,0,0,1-11.35,21,89.68,89.68,0,0,1-7.77,9l-.89.9c-2.29,2.3-4.65,4.68-5.58,7.79a24.51,24.51,0,0,0-.82,10.09c1.06,8,6.24,16.77,13.19,22.22a25.46,25.46,0,0,0,10.46,5,22.42,22.42,0,0,0,5.49.41h.45c3.45-.1,4.36-.31,4.59-.45,2-3.64.56-8.14-.84-12.5a37.28,37.28,0,0,1-1.66-6.33c-2.08-2.16-5-3.43-7.78-4.66-4.89-2.15-9.94-4.37-11.29-11.2a.48.48,0,0,1,.34-.56,3.79,3.79,0,0,0,2-1.66,5.14,5.14,0,0,1,2.15-1.88.83.83,0,0,1,.22,0c5.73.43,8.63,4.4,11.45,8.23,2.12,2.9,4.32,5.89,7.77,7.55A32,32,0,0,0,392,214c15.72,0,31.48-8.81,37.93-15.24-7.7-10.87-19.75-23.65-33.85-23.65a23.06,23.06,0,0,0-2.63.15c-3,.35-5.55,2.22-8,4s-5,3.72-7.91,3.72a8.78,8.78,0,0,1-5.46-2.18.46.46,0,0,1-.18-.38c.2-13,14-13.34,27.42-13.65,5.57-.13,11.32-.26,16-1.3,13.32-9.86,19.76-26.22,19.69-50-1.29-.17-2.72-.38-4.22-.6A155.17,155.17,0,0,0,408.41,112.84Z" />
            <path class="cls-2" d="M260.4,21.71c.46,3.77-.08,10.42-3.15,12.16.12-3.33,1.71-8.68,3.15-12.16" />
            <path class="cls-2" d="M342,83.37c4.91,6.16,12.48,17.83,12.06,22.57-3.91-5.76-9.05-15.81-12.06-22.57" />
            <path class="cls-2" d="M193.31,99.15C200.39,77.24,217.2,65,232.48,51c4.29-3.94,9.39-8.29,12.61-13.06,2.69-4,3.73-8.52,7.2-12.16-.72,4.27-3.29,8.12-5.4,11.71-6.29,10.72-16.94,19-26.11,27.46-10.45,9.6-20.55,22.19-25.67,36.93-.62,1.78,0,5-2.7,5.85-1-2.4.85-5.34.9-8.11-1.06.15-.27,2.14-1.8,1.81A62.68,62.68,0,0,1,202.77,78a2.53,2.53,0,0,1,1.8-.45,50.81,50.81,0,0,0-11.26,21.61" />
            <path class="cls-2" d="M268.05,30.71c.53-.07.8.1.9.45,5.41,18.4,18.53,29.12,26.58,45.48,2.47,5,5.85,11.17,5,18-2.21-.5-1.34-3.21-1.8-4.5-7.49-20.93-24.51-35.2-30.63-58.08-.54-.6-.17-.71,0-1.36" />
            <path class="cls-2" d="M273.32,62.62c.57.13.81.39.79.76-.47,19,9.71,33.83,12.69,51.94.91,5.56,2.41,12.5-.83,18.44-2.15-1.3-.33-3.46-.38-4.82-.86-22.1-13.95-41.71-12.72-65.08-.37-.75.05-.72.45-1.24" />
            <rect class="cls-5" x="260.83" y="40.62" width="1.82" height="1.83" />
            <g class="cls-6">
                <path class="cls-2" d="M262.65,40.62v1.8c-1.18.13-1.94-.16-1.8-1.35a2.55,2.55,0,0,1,1.8-.45" />
            </g>
            <rect class="cls-7" x="260.83" y="40.62" width="1.82" height="1.83" />
            <path class="cls-2" d="M263,49.37c.52-.07.8.1.9.45,3.72,9,6,21.3,5.86,35.12,0,2,1.06,5.76-1.35,6.75A195.33,195.33,0,0,0,263,49.37" />
            <rect class="cls-5" x="233.82" y="56.37" width="2.27" height="2.27" />
            <g class="cls-8">
                <path class="cls-2" d="M236.08,56.38q.16,2.4-2.25,2.25-.15-2.4,2.25-2.25" />
            </g>
            <rect class="cls-7" x="233.82" y="56.37" width="2.27" height="2.27" />
            <path class="cls-2" d="M324.68,107.93c-2.37-1.31-2.88-4.2-4.05-6.3-5.87-10.58-13.77-21.1-20.26-31.52-2.63-4.21-5.62-8.06-7.66-12.6a147.24,147.24,0,0,1,18.46,23,105.37,105.37,0,0,1,13.51,27.46" />
            <rect class="cls-5" x="218.07" y="57.73" width="1.83" height="1.82" />
            <g class="cls-9">
                <path class="cls-2" d="M219.88,57.73c.12,1.18-.17,1.94-1.36,1.8a2.16,2.16,0,0,1-.45-1.35,2.58,2.58,0,0,1,1.81-.45" />
            </g>
            <rect class="cls-7" x="218.07" y="57.73" width="1.83" height="1.82" />
            <path class="cls-2" d="M300.63,62.23c6.47,7.49,13.91,16.56,19.66,24.77-1.09.67-1.76-1.15-2.25-1.8-2.47-3.32-4.56-7.81-7.2-11.71s-8.75-7-10.21-11.26" />
            <rect class="cls-5" x="279.51" y="65.84" width="1.65" height="2.25" />
            <g class="cls-10">
                <path class="cls-2" d="M279.76,65.84h1.35a3,3,0,0,1-.45,2.25c-1.17-.58-1.41-.93-.9-2.25" />
            </g>
            <rect class="cls-7" x="279.51" y="65.84" width="1.65" height="2.25" />
            <rect class="cls-5" x="304" y="82.5" width="2.78" height="2.5" />
            <g class="cls-11">
                <path class="cls-2" d="M305.88,82.5c3,1.41-2.63,4.59-1.8.45.72,0,1.72.21,1.8-.45" />
            </g>
            <rect class="cls-7" x="304" y="82.5" width="2.78" height="2.5" />
            <rect class="cls-5" x="185.2" y="94.15" width="1.4" height="2.3" />
            <g class="cls-12">
                <path class="cls-2" d="M186.56,94.2a3,3,0,0,1-.45,2.25c-1.34,0-1.21-2.68.45-2.25" />
            </g>
            <rect class="cls-7" x="185.2" y="94.15" width="1.4" height="2.3" />
            <rect class="cls-5" x="187.46" y="99.58" width="1.83" height="3.21" />
            <g class="cls-13">
                <path class="cls-2" d="M187.46,100.05c1.45-2,3,3.22.45,2.71-.26-.79.54-2.65-.45-2.71" />
            </g>
            <rect class="cls-7" x="187.46" y="99.58" width="1.83" height="3.21" />
            <rect class="cls-5" x="205.9" y="99.74" width="3.62" height="3.05" />
            <g class="cls-14">
                <path class="cls-2" d="M209.52,102.31c-1.17.94-3.84.5-3.6-1.35.52-2.57,3.67-.59,3.6,1.35" />
            </g>
            <rect class="cls-7" x="205.9" y="99.74" width="3.62" height="3.05" />
            <rect class="cls-5" x="333.13" y="100.46" width="2.47" height="2.76" />
            <g class="cls-15">
                <path class="cls-2" d="M333.8,100.51c1.64-.29,1.77.93,1.8,2.25-.81-.06-1,.55-1.8.45-1-1-.73-1.5,0-2.7" />
            </g>
            <rect class="cls-7" x="333.13" y="100.46" width="2.47" height="2.76" />
            <path class="cls-2" d="M302.73,103.66h.9c4.08,4.24,5.86,14.33,6.31,23,.09,1.75.08,3.53,0,5.4-.15,3.09.15,7.37-2.26,9,1.36-14.28-2.27-25.81-4.95-37.37" />
            <path class="cls-2" d="M272.11,105c.38-.1.42.21.45.55,6.74,24.95,10.62,68.66.9,93.29-1.86-1-.26-3.59,0-4.91a203.48,203.48,0,0,0,3.6-41.47c-.33-16.68-3.29-32.58-5.4-45.82-.13-.88.42-.94.45-1.64" />
            <rect class="cls-5" x="258.15" y="105.44" width="3.19" height="2.32" />
            <g class="cls-16">
                <path class="cls-2" d="M258.15,105.46c1.27.08,3.09-.39,3.15.9.42,1.83-2.44,1.56-3.15.9Z" />
            </g>
            <rect class="cls-7" x="258.15" y="105.44" width="3.19" height="2.32" />
            <path class="cls-2" d="M343.25,110h1.36c5.72,10.65,3.51,29.91-.45,41-1.2-.86-.25-2.78,0-4.05,1.92-10,3.73-25.73-.91-35.57Z" />
            <path class="cls-2" d="M355.52,118l1.25.11c4.1,13.28-.14,36.18-5.08,49.09-1-1.14.09-3.36.46-4.85,2.93-11.87,6.4-30.53,3.21-42.74.05-.54.11-1.08.16-1.61" />
            <rect class="cls-5" x="184.7" y="117.62" width="11.77" height="65.29" />
            <g class="cls-17">
                <path class="cls-2" d="M188.36,117.62h1.35c.27,10.87-2.63,21.85-1.8,33.32.84,11.81,5.79,22.82,8.55,32-3-.81-3.5-4.52-4.5-7.2s-1.85-5.94-2.7-9c-1.62-5.83-4.2-12.46-4.51-18.91-.46-9.67,1.88-19.5,3.16-28.81a2.18,2.18,0,0,0,.45-1.35" />
            </g>
            <rect class="cls-7" x="184.7" y="117.62" width="11.77" height="65.29" />
            <path class="cls-2" d="M330.65,118.52H332c4.64,17.82,1.43,39.31-2.25,55.21-.58,2.5-.56,6-2.7,7,3.51-17.94,7.44-42,3.6-62.18" />
            <rect class="cls-5" x="292.34" y="120.74" width="3.18" height="2.81" />
            <g class="cls-18">
                <path class="cls-2" d="M292.37,120.77a2.56,2.56,0,0,1,3.16,2.25c-1.06,0-1.33.77-2.71.45-.52-.53-.51-1.59-.45-2.7" />
            </g>
            <rect class="cls-7" x="292.34" y="120.74" width="3.18" height="2.81" />
            <rect class="cls-5" x="243.74" y="126.62" width="1.36" height="24.31" />
            <g class="cls-19">
                <path class="cls-2" d="M243.74,126.62a89.48,89.48,0,0,1,.9,24.31c-.72-7.69-.68-16.13-.9-24.31" />
            </g>
            <rect class="cls-7" x="243.74" y="126.62" width="1.36" height="24.31" />
            <rect class="cls-5" x="289.19" y="131.47" width="2.8" height="3.71" />
            <g class="cls-20">
                <path class="cls-2" d="M291.92,131.57c.22,1.15-.1,2-.45,3.61h-1.8c-1.11-1.55-.29-4.29,2.25-3.61" />
            </g>
            <rect class="cls-7" x="289.19" y="131.47" width="2.8" height="3.71" />
            <rect class="cls-5" x="232.02" y="132.49" width="3.7" height="3.58" />
            <g class="cls-21">
                <path class="cls-2" d="M235.63,133.37c.36,1.56-.5,1.91-.9,2.71-4.59-.18-2.72-5.68.9-2.71" />
            </g>
            <rect class="cls-7" x="232.02" y="132.49" width="3.7" height="3.58" />
            <rect class="cls-5" x="177.05" y="136.53" width="1.71" height="3.19" />
            <g class="cls-22">
                <path class="cls-2" d="M177.55,136.53c1.35.05,1.44,2.55.9,3.15-1.83.42-1.56-2.44-.9-3.15" />
            </g>
            <rect class="cls-7" x="177.05" y="136.53" width="1.71" height="3.19" />
            <rect class="cls-5" x="316.64" y="145.66" width="2.75" height="2.14" />
            <g class="cls-23">
                <path class="cls-2" d="M319.39,146.88c-.05,1.15-1.51.9-2.7.9-.42-2.64,2.14-2.67,2.7-.9" />
            </g>
            <rect class="cls-7" x="316.64" y="145.66" width="2.75" height="2.14" />
            <rect class="cls-5" x="183.85" y="150.93" width="9.46" height="31.97" />
            <g class="cls-24">
                <path class="cls-2" d="M183.85,150.93c3.51,10.31,5.38,22.25,9.46,32-5.51-8.29-7.07-20.54-9.46-32" />
            </g>
            <rect class="cls-7" x="183.85" y="150.93" width="9.46" height="31.97" />
            <rect class="cls-5" x="306.59" y="151.38" width="1.88" height="26.3" />
            <g class="cls-25">
                <path class="cls-2" d="M307.68,151.38c1.87,6.58,0,19.32-.9,26.31-.61-7.3.42-18.34.9-26.31" />
            </g>
            <rect class="cls-7" x="306.59" y="151.38" width="1.88" height="26.3" />
            <rect class="cls-5" x="269.15" y="162.84" width="2.96" height="3.01" />
            <g class="cls-26">
                <path class="cls-2" d="M272.11,163.09c0,1.76-.56,3-2.71,2.7a2,2,0,0,1,2.71-2.7" />
            </g>
            <rect class="cls-7" x="269.15" y="162.84" width="2.96" height="3.01" />
            <rect class="cls-5" x="224.86" y="163.54" width="2.22" height="3.22" />
            <g class="cls-27">
                <path class="cls-2" d="M225.73,163.54c1.53,0,1.33,1.67,1.35,3.15-2,.56-3.07-2.7-1.35-3.15" />
            </g>
            <rect class="cls-7" x="224.86" y="163.54" width="2.22" height="3.22" />
            <rect class="cls-5" x="222.58" y="173" width="7.2" height="19.36" />
            <g class="cls-28">
                <path class="cls-2" d="M222.58,173h1.35c1.27,7.13,3.9,12.9,5.85,19.36-2.57-1.77-2.95-5.41-4.05-8.56s-2.48-6-3.15-9.45Z" />
            </g>
            <rect class="cls-7" x="222.58" y="173" width="7.2" height="19.36" />
            <rect class="cls-5" x="302.61" y="187.38" width="2.77" height="3.25" />
            <g class="cls-29">
                <path class="cls-2" d="M303.09,187.4c2-.2,2.45,1.15,2.25,3.15-1.38.32-1.64-.46-2.7-.45-.06-1.11-.07-2.17.45-2.7" />
            </g>
            <rect class="cls-7" x="302.61" y="187.38" width="2.77" height="3.25" />
            <rect class="cls-5" x="323.88" y="186.06" width="2.5" height="5.9" />
            <g class="cls-30">
                <path class="cls-2" d="M325.69,186.06c1.81.78-.37,5.45-1.8,5.89-.16-2.87,1.25-3.87,1.8-5.89" />
            </g>
            <rect class="cls-7" x="323.88" y="186.06" width="2.5" height="5.9" />
            <path class="cls-2" d="M306.78,105.91c1.47,1.06,2,3.68,2.71,5.85a39.92,39.92,0,0,1,1.8,10.36c.14,2,1.56,5-.45,6.3.7-9.56-1.58-16.13-4.06-22.51" />
            <path class="cls-2" d="M71.9,134.23c-8.67,23.92,3.71,48,3.71,48C96.38,227.81,144.72,237,144.72,237c69.91,8,94.67-30.76,94.67-30.76,8.93-9.74,17.22-21.14,22.7-33.19a103.89,103.89,0,0,0,8.23-29.9,81.37,81.37,0,0,0-.77-25.4A130.29,130.29,0,0,0,265,99.92a41.06,41.06,0,0,0-7.38-12.48c-3-3.71-8.8-8.6-13.87-8.59" />
            <path class="cls-2" d="M268.11,122.58s11.19-44.82-70.83-60c0,0-34.62-3.5-49.53,0-6.09.65-13.15.93-19-.91-3.06-.94-6.22-2-9.22-3.21a14.94,14.94,0,0,1-3.34-1.8,7.35,7.35,0,0,1-1.39-1.34,15.46,15.46,0,0,0-.92-1.58s-11.1-3-8.7,15.89c0,0,2,8-2.22,14.2,0,0-30.75,37-32.15,56.19,0,0-14.57,70.1,85.28,62.91,0,0,33.35.2,52.72-19.17,0,0,48.78-13,59.34-61.22" />
            <path class="cls-1" d="M267.85,122.51a23.1,23.1,0,0,0,.42-3.13,30.68,30.68,0,0,0,.06-3.18,35.23,35.23,0,0,0-.78-6.31,38.55,38.55,0,0,0-4.73-11.74,46.46,46.46,0,0,0-8-9.75,61.91,61.91,0,0,0-10.11-7.58,86.26,86.26,0,0,0-11.26-5.72,125,125,0,0,0-11.89-4.32A199.62,199.62,0,0,0,196.84,65l.2,0L194,64.76l-3.08-.23c-2.05-.15-4.1-.28-6.16-.41-4.1-.24-8.21-.44-12.31-.56s-8.19-.17-12.26-.06c-2,.06-4.06.16-6.07.33-1,.08-2,.19-3,.32s-2,.29-2.9.49l-.17,0H148c-1.23.11-2.47.19-3.71.25s-2.48.09-3.73.08a47.85,47.85,0,0,1-7.53-.59,32.68,32.68,0,0,1-3.75-.84l-.92-.29-.87-.29-1.73-.6c-2.31-.81-4.62-1.67-6.89-2.69a16.18,16.18,0,0,1-3.44-2,9,9,0,0,1-1.5-1.47l-.09-.11,0-.07,0-.05,0,0,0,0-.15-.27-.21-.43-.19-.38-.09-.17L113,54.6l.06.06,0,0,.06,0a1.07,1.07,0,0,0,.34.19l.07,0h0l-.17,0-.36-.07c-.25,0-.51-.05-.77-.06a5.87,5.87,0,0,0-1.51.16,5,5,0,0,0-2.56,1.48,7.88,7.88,0,0,0-1.58,2.76,15.16,15.16,0,0,0-.7,3.33,25.44,25.44,0,0,0-.11,3.5c0,1.18.13,2.37.27,3.55l0-.1c0,.19.07.34.1.5s.05.32.08.48c0,.32.09.63.12,1,.07.63.12,1.27.14,1.91a23.3,23.3,0,0,1-.2,3.82,18.7,18.7,0,0,1-.9,3.74,15.24,15.24,0,0,1-1.74,3.47l0,0,0,0c-1.71,2.09-3.39,4.24-5,6.39s-3.26,4.35-4.85,6.56c-3.16,4.42-6.19,8.93-9,13.55-.71,1.16-1.41,2.32-2.09,3.49s-1.34,2.35-2,3.54c-1.29,2.37-2.51,4.78-3.62,7.23A69.15,69.15,0,0,0,74,132.6c-.4,1.26-.75,2.53-1,3.8a23.79,23.79,0,0,0-.52,3.79v0l0,.19-.07.42-.06.46c0,.31-.08.62-.11.93-.07.62-.12,1.25-.16,1.88-.09,1.26-.13,2.52-.13,3.78a57.55,57.55,0,0,0,.49,7.55,55.4,55.4,0,0,0,1.48,7.38,49,49,0,0,0,2.52,7,44.61,44.61,0,0,0,3.59,6.5,42.76,42.76,0,0,0,4.6,5.8,47.87,47.87,0,0,0,11.75,9,65,65,0,0,0,13.91,5.61,95.8,95.8,0,0,0,14.91,2.89,139.12,139.12,0,0,0,15.29.91c5.12,0,10.26-.15,15.39-.51h1l.85,0c.57,0,1.15-.05,1.72-.09,1.16-.07,2.31-.16,3.47-.27,2.31-.22,4.62-.52,6.91-.9a94.11,94.11,0,0,0,13.53-3.22,72.56,72.56,0,0,0,12.69-5.4,55.9,55.9,0,0,0,5.8-3.64,48.69,48.69,0,0,0,5.26-4.34l.49-.47.57-.15.29-.07.31-.08.64-.18,1.29-.39c.86-.27,1.72-.56,2.57-.86,1.71-.6,3.42-1.25,5.1-1.95a102.94,102.94,0,0,0,9.87-4.77,89.49,89.49,0,0,0,17.86-12.8,74.36,74.36,0,0,0,13.78-17.23,70.73,70.73,0,0,0,4.77-10,73.26,73.26,0,0,0,3.19-10.65Zm.53.13a80.54,80.54,0,0,1-13.65,30.54,85.27,85.27,0,0,1-7.23,8.66A94.35,94.35,0,0,1,230,176.17c-1.59,1-3.22,2-4.88,2.92s-3.33,1.82-5,2.65-3.45,1.61-5.22,2.34c-.88.36-1.77.71-2.67,1l-1.37.49-.69.23-.36.12-.38.11,1.06-.61a52.25,52.25,0,0,1-5.59,5,57.67,57.67,0,0,1-6.2,4.2,72.83,72.83,0,0,1-13.54,6.12c-2.34.8-4.7,1.49-7.09,2.09s-4.8,1.12-7.22,1.54-4.85.76-7.3,1c-1.22.12-2.45.23-3.69.31l-1.85.1-.94,0h-.76c-5.27.39-10.57.58-15.88.51a137.37,137.37,0,0,1-15.93-1.1,99.32,99.32,0,0,1-15.73-3.3,70.72,70.72,0,0,1-14.94-6.33A53.16,53.16,0,0,1,81,185.48a47.45,47.45,0,0,1-8.77-13.83,52,52,0,0,1-2.51-7.76,56.18,56.18,0,0,1-1.31-8,60.47,60.47,0,0,1-.2-8.07c0-1.35.15-2.69.3-4,.07-.67.16-1.34.26-2,.05-.34.1-.67.16-1l.1-.51c0-.17.07-.34.11-.53l0,.22a28.36,28.36,0,0,1,.77-4.28,42.36,42.36,0,0,1,1.28-4A72.3,72.3,0,0,1,74.49,124a152.37,152.37,0,0,1,8.35-14.21c3-4.59,6.15-9.06,9.4-13.46,1.62-2.2,3.26-4.38,4.94-6.54s3.36-4.3,5.11-6.42l-.05.07a13.66,13.66,0,0,0,1.54-3.11,16.52,16.52,0,0,0,.8-3.42,20.77,20.77,0,0,0,.14-3.53c0-.59-.07-1.18-.14-1.77,0-.29-.08-.58-.13-.87s0-.29-.08-.43-.06-.29-.09-.41v-.1a36.2,36.2,0,0,1-.32-7.45,17.39,17.39,0,0,1,.69-3.79A9.75,9.75,0,0,1,106.55,55a7.18,7.18,0,0,1,1.62-1.38,7.6,7.6,0,0,1,2-.87,8.64,8.64,0,0,1,2.08-.3,9.21,9.21,0,0,1,1,0l.53.07.28.06h.07l.1,0a1.33,1.33,0,0,1,.39.21.5.5,0,0,0,.08.07l0,.06a1.34,1.34,0,0,1,.2.24c.08.11.13.19.18.27l.13.23.23.42.21.38.07.12h0l0,0s0,0,0,0,0,0,0,0v0l.06.06a6.19,6.19,0,0,0,1.14,1,12.86,12.86,0,0,0,2.94,1.49c2.2.86,4.48,1.59,6.78,2.27l1.73.5.87.25.82.21a29.48,29.48,0,0,0,3.38.59,45,45,0,0,0,7,.2c1.17-.05,2.35-.13,3.53-.24s2.36-.24,3.54-.4l-.26,0a49.71,49.71,0,0,1,6.38-1.14c2.11-.26,4.22-.43,6.32-.55,4.21-.24,8.39-.28,12.57-.22s8.35.24,12.5.5q3.12.19,6.24.45c1,.08,2.07.17,3.11.27s2.07.19,3.13.31h.12l.07,0a161.78,161.78,0,0,1,25,6.85,118.09,118.09,0,0,1,12,5.16,91.37,91.37,0,0,1,11.21,6.62,67.15,67.15,0,0,1,9.94,8.4,50.1,50.1,0,0,1,7.79,10.37,41.51,41.51,0,0,1,4.51,12.1,37.56,37.56,0,0,1,.72,6.42,31.85,31.85,0,0,1-.07,3.24,22.05,22.05,0,0,1-.44,3.22" />
            <path class="cls-2" d="M225,89.11a1.13,1.13,0,0,0,.89.43c.8-.08,1.1-1.57,1.48-2.29a3,3,0,0,1,2.06-1.71c.58,3.24-1.44,5-3.24,6.39a37.1,37.1,0,0,1-6.34,3.64c1.34.82,3.67.14,5-.34a19.5,19.5,0,0,0,5.59-3.18,9.79,9.79,0,0,0,1.67-1.62,3.58,3.58,0,0,1,.48-.58,1.21,1.21,0,0,1,1,0,2.74,2.74,0,0,1-1.08,2,6.62,6.62,0,0,1-1.76,1.45c1.56.94,3.23-.93,4.64-1.31,1.54,2.38-.48,4.54-1.92,5.58a15.39,15.39,0,0,1-6.22,2.43c0,.17.35.31.58.39a4.07,4.07,0,0,0,1.87.2,14.23,14.23,0,0,0,4.68-1.7,19.34,19.34,0,0,1,4.68-1.71c1.3,1.11.32,3-.66,3.87a11.34,11.34,0,0,1-2.24,1.54,14.19,14.19,0,0,1-5.83,1.81c1.48,2,4.78-.13,6.24-1a2.08,2.08,0,0,1,.6,2c-.37,1.22-2,2-2.76,2.74,2.38.56,3.94-.91,4.81-2.46a11.86,11.86,0,0,0,1.36-4.5c2.15-.23.86,2,.44,3a3.68,3.68,0,0,0-.41,2.89c.24,0,.37-.28.53-.45.36-.37,1.14-1.23,2-1.09a.94.94,0,0,1,.68.87,3.64,3.64,0,0,1-1.2,2.82,4.37,4.37,0,0,1-3.63,1.33c2.2.76,4.29-.66,6.2-1a7.37,7.37,0,0,1-4,3.34c-2.71,1.14-7,1.85-9.94.62.3,1.17,1.57,1.57,2.74,1.83A15.53,15.53,0,0,0,245,113.29a8.38,8.38,0,0,1-1.13,1.7,4.72,4.72,0,0,0-1.22,1.57c.39.31,1,.18,1.6.11s1.15-.2,1.64-.24c-.1,2.08-2.78,1.86-5,2.11a5.85,5.85,0,0,0-3.71,1.38c3.23.16,5.76,1,9.12,1.07-.84,2-3,3.14-5.68,3.45a18.48,18.48,0,0,1-7.92-.91c.34,1.8,2.3,2.35,4.17,2.78a22.42,22.42,0,0,0,7.82.34c.12.07-.06.2-.09.22-1.09,1-3.08,1.66-4.76,2.16-1.9.55-4,1.05-5.79,1.63-3.77,1.18-7.34,2.62-8.49,6.24a72.07,72.07,0,0,1,8.39-3.63,37.31,37.31,0,0,1,9.68-2.39c.56,2-2,1.59-3.43,1.82a3.93,3.93,0,0,0-2.65,1.41c1.18,1.87,4.74-.28,6.32,1a3.9,3.9,0,0,1,.81,1.19,7.37,7.37,0,0,1-2,1.4,6.72,6.72,0,0,1-2.61.79c-2.44.2-4.38-.9-6.84-.75a3.8,3.8,0,0,0,.9.66,16.94,16.94,0,0,1,2.73,2.09c1,1,2.46,2.26,2.28,4.23a3.8,3.8,0,0,1-1.48,2.42,9.13,9.13,0,0,1-2.42,1.49c-.79-1.18-1.66-2.28-2.44-3.47-.75.6-1.69,1.12-1.7,2.33a2.61,2.61,0,0,0,.19.84c.72,1.93,3.41,3.35,4.41,4.87-4,.77-7.32-1.38-9.23-3.43a17.75,17.75,0,0,1-4.1-7.35c-1.12,1-1.13,3.48-.72,5.16a15.39,15.39,0,0,0,2,4.5,23.68,23.68,0,0,0,5.32,6,4.37,4.37,0,0,1,.89.7,6.74,6.74,0,0,1-4,1,7.78,7.78,0,0,1-3.61-1.42c-2-1.35-3.72-3.17-5.66-4.45a4.12,4.12,0,0,0,.8,3.23c.43.71.92,1.37,1.36,2,.95,1.33,2.11,2.56,2.06,4.54-2.24-.19-3.67-1.21-5.48-1.83a17.29,17.29,0,0,1-1.65,2.86,4.11,4.11,0,0,0-1,3.34c-2.47-.95-3.43-3.53-4.52-5.88s-2.24-4.73-4.16-6.25a35.82,35.82,0,0,0,1.86,6.32c.63,2,1.33,4.6.49,6.79a1.59,1.59,0,0,1-1.2-.16c-1-.61-1.45-2-2.3-2.77-.67,1.64-1.89,2.75-2.16,4.78a4.29,4.29,0,0,1-3.29-3.64,9.23,9.23,0,0,1,.68-5.82c-1.9.3-2.29,2.36-2.43,4.38a31.61,31.61,0,0,0,.36,6.39,22.28,22.28,0,0,1-5.9-2.54,10.63,10.63,0,0,0-6.67-1.51,3.85,3.85,0,0,0,1.2.74c1.29.65,2.81,1.24,4.07,2a10.41,10.41,0,0,1,3.88,4.3c-1.13-.69-3.56-.19-4.79.37-.42.19-1,.59-1,.9,0,.65,1.14.77,1.7.87.07.22-.18.36-.31.49a2.76,2.76,0,0,1-.43.41c-1.27.81-3,.23-4.05-.35-3.33-1.79-5.76-5-7.65-8.06a6.77,6.77,0,0,0,1.36,5.26,31.06,31.06,0,0,0,5.26,5.12,20,20,0,0,1,2.65,2.54c-2.27.25-6.17-.27-7.89.73a1.66,1.66,0,0,0-.91,1.34,4,4,0,0,0,.74,2.21,5.12,5.12,0,0,1-3.25-.75c-2.54-1.5-4.14-4.06-6-6.22a10.59,10.59,0,0,0,1.08,4.51,9.76,9.76,0,0,1,1.12,4.47c-.15,1.9-1.54,2.74-3,3.46a1.6,1.6,0,0,1-.32-.53A24.45,24.45,0,0,0,162,184.4a30.24,30.24,0,0,0-7.48-5.58c1.11,2.38,2.71,4.49,4,6.83,1.13,2,2.8,5.43,1.22,8.37-1.88.09-2.56-1.31-3.45-2.71a12.5,12.5,0,0,0-1.9-2.59c-.47-.39-1.93-1.11-2,.07a2.8,2.8,0,0,0,.82,1.81,13.12,13.12,0,0,1,1,1.59,7,7,0,0,1-3,1.55,24.83,24.83,0,0,1-3.73-.09c-.17,0-.37.08-.48.06-.35-.08-.91-1-1.13-1.28a6,6,0,0,1-.82-1.58c-.39-1.27-.2-3-.46-4.35a1.35,1.35,0,0,0-1.45.69,10.85,10.85,0,0,0-.91,2.23c-.83,2.29-2.1,4.06-4.82,4.59a3.48,3.48,0,0,1-.77-1.41c-.6-2.16,1-3.48,2.21-4.24a2,2,0,0,0-2-.29c-1.7.67-2.35,2.91-4,3.56a3.59,3.59,0,0,1,.81-2.31,23.26,23.26,0,0,1,4.69-4.91,17.28,17.28,0,0,1,8.73-4.11,8.21,8.21,0,0,0-6.08.13c-3.6,1.29-6,3.47-8.62,5.89a36.91,36.91,0,0,0-2.62,2.83c-.26.29-.61.91-.83.94s-.8-.52-.86-.83a3.69,3.69,0,0,1,.51-2c.93-2,3.19-4.88,1.49-7.3-1.34.08-1.75,1.41-2.09,2.43a20.28,20.28,0,0,1-1.25,3.25,7.39,7.39,0,0,1-5.32,3.76c-1.76-3.14,2.6-4.79,1.36-7.88a11.29,11.29,0,0,1-2.32,1.95c-1.07.77-2.25,1.5-2.54,3-1.83.73-.61-1.95-1.06-2.82-1.22,0-1.92.78-2.73,1.28a1.75,1.75,0,0,1,.43-.68c1.17-1.5,2.59-2.91,3.81-4.44,1.35-1.71,2.77-3.72,2.48-6.82a5.8,5.8,0,0,0-1,1.52,34.51,34.51,0,0,1-3.26,4.66,15.74,15.74,0,0,1-6.38,4.26c.72-2.95-2.46-3.64-5.15-3.26-.46-1.78,1.81-1.27,3-1.6a2.63,2.63,0,0,0-2.73-1.38c-1.25,0-2.69.43-3.77.05.34-1.07,1.19-1.54,2.78-1.46s3,.59,4.62.56a6,6,0,0,0,4.54-1.92c-2-1-4.61.34-6.87.09A1.16,1.16,0,0,1,107,173a14.88,14.88,0,0,1,2-1.22c.65-.39,1.47-.79,1.44-1.71a7.45,7.45,0,0,0-2.69,1.19,24.4,24.4,0,0,1-5.38,2.47,5.2,5.2,0,0,1-3.33,0,3.51,3.51,0,0,1,1.48-2.59,18.5,18.5,0,0,1,2.37-1.68c1.66-1.07,3.4-2.06,4.39-3.74-3.56,1.44-6.92,3.07-11.36,3.66a2.39,2.39,0,0,1-.24-1.29c.13-1.33,1.48-2,2-3a3.07,3.07,0,0,0-1.65,0c-.56.07-1.12.19-1.63.24.56-1,1.75-1.46,2.81-1.95a50.89,50.89,0,0,0,6.39-3.06,5.72,5.72,0,0,0,2.32-2.38,22.76,22.76,0,0,0-5.79,1.59c-2.23.8-5.34,2-7.84.9-1.22-2.67,5.2.37,4.85-2.06-.16-1.15-2.92-.83-4.23-.87-1.74-.06-3.11-.31-3.7-1.42.62.08,1.82.41,2.08-.16s-.77-2-1-2.38c-.59-.82-1.07-1.4-1.49-2,1.14.25,2.26.63,3.43.93a70.09,70.09,0,0,0,11.25,1.93c-.2-1.62-2.18-1.64-3.79-1.9-3.35-.54-6.47-1.23-7.47-4.07a9.45,9.45,0,0,1,3.76-.63c1.89.08,3.65.59,5.73.32a8.08,8.08,0,0,0-5.49-2.27,25.43,25.43,0,0,0-7,.89c-.78.18-1.37.29-1.91-.24.24-.55,1.06-.62,1.67-.78a19.44,19.44,0,0,0,4.64-1.53,2.89,2.89,0,0,0,.7-.49c0-.23-1.2-.62-1.47-.69-1.89-.48-4,.25-5.36.78,0-.26.17-.5.3-.71,1-1.53,2.65-2.41,5.16-2.47,2.79-.06,5.2.76,8,.65a2,2,0,0,0-.67-.44,17.93,17.93,0,0,0-6.11-2.13,15.38,15.38,0,0,0-8.1,1.08c0-.17.13-.29.21-.4a5.14,5.14,0,0,1,3.08-1.86,25.12,25.12,0,0,1,5.33-.16,20.25,20.25,0,0,0,5.18-.43,8.72,8.72,0,0,0,3.75-1.87c-2.72-.81-6.07-.8-9-1.3A11.85,11.85,0,0,1,88.26,131c-.21-.18-.48-.37-.54-.66a9.54,9.54,0,0,1,6.68-1.2c2.34.38,4.38,1.19,7.07,1.06-2.88-2.56-7.63-3.32-10.68-5.76-.22-.17-.42-.38-.63-.57s-.45-.31-.5-.57a7.35,7.35,0,0,1,6.5,1.33c.48-.33.43-1,.16-1.55-.42-.88-1.36-1.75-1.59-2.47a12.65,12.65,0,0,1,3.35,1.56,56.65,56.65,0,0,0,6.52,3.28,14.35,14.35,0,0,0,2.86.8,3.9,3.9,0,0,0,1.06.12,2.87,2.87,0,0,0,.71-.45,4.58,4.58,0,0,1,2.69-.75,4.64,4.64,0,0,0,3.36-1.2c-3-.93-7-.29-10.13-.88a8.76,8.76,0,0,1-6.41-4.66c2.19-.81,3.74,1.23,5.91.45.68-1.25-.82-1.47-1.93-1.57-2.71-.25-4.9-.48-5.46-2.9a6.37,6.37,0,0,1,1.55-.37c4.29-.38,6.33,3,10.82,2.11a9.26,9.26,0,0,0-2.56-1.69c-.91-.5-1.87-1-2.77-1.56-1.74-1.06-3.56-2.32-3.49-5.19a3,3,0,0,1,.9.43c2.06,1.09,4.19,2.25,6.48,3.19a20.59,20.59,0,0,0,9.16,1.88,2.93,2.93,0,0,0-1.57-1.36c-1.92-1-4.35-1.58-6.42-2.44-2.85-1.18-5.33-2.64-6.69-5.1,6.36-.4,11,1.37,16.67,1.81-.48-1.15-1.78-1.61-3-2-3.75-1.07-8.47-1.39-10.88-3.81,2.39-1,5.23-2.31,8.58-2.29a10,10,0,0,1,7.5,3.23c.42-5.15-4.37-5.37-8.29-6.23-2.19-.49-4.42-1.08-4.45-3.72,2.57-1.16,5.54-.08,7.6,1a30.61,30.61,0,0,0,4.43,2.15,2.57,2.57,0,0,0-.78-1.72,11.26,11.26,0,0,0-2.47-1.74c-2.58-1.53-5.51-2.88-7.21-5.31A8.12,8.12,0,0,1,115,87.36c2.47,1.7,4.37,3.85,7.08,5.36a6.93,6.93,0,0,0,5,.87c-.53-.54-1.14-1-1.75-1.53a38.58,38.58,0,0,1-5.08-4.91c-1.89-2.28-3.91-5.41-3.24-9.8,3.49-.61,5.47,1.34,6.66,3.55a19,19,0,0,1,2.07,8.53c.34,0,.55-.35.74-.58,1.48-1.76,1.2-5.63.56-8.31a24,24,0,0,0-3.57-7.85c4.56,1.42,7.29,4.91,11.19,7.21a9.4,9.4,0,0,0,6.1,1.47,5.17,5.17,0,0,0-.71-.52,27.62,27.62,0,0,1-5.21-4.1c-1.7-1.79-3.49-3.75-3.69-7a10.5,10.5,0,0,1,9.38,4.4,20.07,20.07,0,0,1,3.87,10.16c1.89-.45,2.22-2.92,2.19-5.14a19.73,19.73,0,0,0-.45-4,6.76,6.76,0,0,0-1.77-2.68,10.1,10.1,0,0,1-1.85-2.55c-.67-1.69.9-2.44,2.31-2.65,1.34,4,1.65,9,3.37,12.56,1.56-3.23-1.38-10.61,3.76-10.39,1.22,2.38,0,5.5-.2,8.25a7.88,7.88,0,0,0,1.54,5.4c1.24-2.59,1.67-5.61,3-8a12.68,12.68,0,0,1,5.88-5.14c.56,5.15-1.09,8.86-1.87,13,1.36-.22,2-1.39,2.5-2.57s.73-2.68,1.1-4c.76-2.67,1.89-4.91,4.18-6a26.66,26.66,0,0,1,.36,14.19c5.09-1.17,4.12-10.34,2.25-14.45,6-.77,3.86,6.74,5.82,10.08,1.59-2.73.65-7.91,2.16-10.72,1.49.17,2.45.79,2.34,2.63a23,23,0,0,1-.88,3.69c-.15.65-.39,1.58.25,1.73s1.09-.34,1.41-.73a4.22,4.22,0,0,0,1-3.52,5.1,5.1,0,0,1,2.44,3.08,8.53,8.53,0,0,1-.34,4.75,16.7,16.7,0,0,1-4.3,6.63c.3-.12.78-.06.88-.37a2.6,2.6,0,0,0,1.64-.42A8.52,8.52,0,0,0,188,80.69a15.6,15.6,0,0,0-1.28-9.39,7.76,7.76,0,0,1-.5-1.06,1.36,1.36,0,0,1,.07-1.07c.59.06.93.57,1.26,1,1,1.19,1.85,2.6,2.8,3.87.6-.7.29-1.83.37-2.76.12-1.58,1.42-2.23,2.85-2.48-.21,4-.21,8.43,1.13,11.3.72-2.22,1.08-4.51,2-6.41a9.48,9.48,0,0,1,4.38-4.15A25.21,25.21,0,0,1,200.8,78a11.79,11.79,0,0,1-3.61,5.6c7.71-.49,7.33-8.84,12.67-11.63-1.6,3.73-4.15,6.53-4.14,11.82,1.7-.18,2-2.15,2.47-3.63,1-3,2.71-5.13,6.18-5.81A4,4,0,0,1,213,77.24a11.37,11.37,0,0,0-1.78,2.42,1.76,1.76,0,0,0,2.39,0c1.08-1,1.6-3,3.64-3.24A33.58,33.58,0,0,1,214,82.06c-1.08,1.79-2.26,3.77-1.95,6.73,1.65.3,1.89-1.42,2.19-2.73.5-2.27,1.26-4.4,3.39-5.07a3.14,3.14,0,0,1,.64,1.15,7.57,7.57,0,0,1,.37,4.43c-.4,1.88-1.19,3.6-1.44,5.48a3.66,3.66,0,0,0,2.15-1.76,14.63,14.63,0,0,0,2.14-9.3,9.83,9.83,0,0,0,3.19,3.06,2.36,2.36,0,0,0,1.52.42c.33-.46,0-1.15-.2-1.55a3.2,3.2,0,0,1,.65,2.12c-.17,1.46-1.26,3-1.72,4.07" />
            <path class="cls-2" d="M212.23,101.77a.87.87,0,0,0,.7.34c.62-.06.86-1.23,1.15-1.79A2.29,2.29,0,0,1,215.7,99c.45,2.53-1.13,3.93-2.54,5a29.09,29.09,0,0,1-5,2.85c1.05.65,2.88.12,3.93-.26a15.4,15.4,0,0,0,4.38-2.49,8.63,8.63,0,0,0,1.3-1.27,2.89,2.89,0,0,1,.38-.46.93.93,0,0,1,.8,0,2.14,2.14,0,0,1-.85,1.58,5.51,5.51,0,0,1-1.37,1.13c1.22.74,2.52-.73,3.63-1,1.21,1.86-.37,3.55-1.5,4.36A11.92,11.92,0,0,1,214,110.3c0,.13.28.24.46.31a3.38,3.38,0,0,0,1.46.15,11,11,0,0,0,3.67-1.34,15.75,15.75,0,0,1,3.66-1.33c1,.87.25,2.32-.51,3a8.25,8.25,0,0,1-1.76,1.21,11,11,0,0,1-4.57,1.41c1.16,1.56,3.75-.1,4.89-.79a1.62,1.62,0,0,1,.48,1.59c-.29,1-1.61,1.56-2.16,2.15a3.33,3.33,0,0,0,3.76-1.93,9.14,9.14,0,0,0,1.06-3.52c1.69-.18.68,1.58.35,2.36a2.88,2.88,0,0,0-.32,2.26c.19,0,.29-.22.41-.35.29-.29.9-1,1.56-.86a.76.76,0,0,1,.53.69,2.87,2.87,0,0,1-.94,2.2,3.41,3.41,0,0,1-2.84,1c1.72.59,3.36-.52,4.86-.8a5.77,5.77,0,0,1-3.17,2.62c-2.12.9-5.47,1.45-7.78.49.23.91,1.22,1.23,2.14,1.43a12.18,12.18,0,0,0,8.67-1.61,6.82,6.82,0,0,1-.88,1.33,3.63,3.63,0,0,0-1,1.23c.3.24.81.14,1.25.09s.9-.16,1.29-.2c-.08,1.63-2.18,1.47-3.91,1.66a4.58,4.58,0,0,0-2.91,1.08c2.53.13,4.51.82,7.14.84-.65,1.57-2.34,2.46-4.45,2.7a14.32,14.32,0,0,1-6.19-.71c.25,1.41,1.8,1.84,3.26,2.18a17.61,17.61,0,0,0,6.12.26c.1.06,0,.16-.07.18a9.63,9.63,0,0,1-3.73,1.69c-1.49.43-3.09.82-4.54,1.27-3,.93-5.74,2.06-6.64,4.89a54.57,54.57,0,0,1,6.57-2.83,28.81,28.81,0,0,1,7.59-1.88c.43,1.53-1.56,1.25-2.7,1.43a3,3,0,0,0-2.07,1.1c.92,1.47,3.71-.22,4.95.77a3,3,0,0,1,.64.93,6.12,6.12,0,0,1-1.58,1.1,5.54,5.54,0,0,1-2,.62c-1.91.15-3.43-.71-5.36-.59a3,3,0,0,0,.7.51,13.54,13.54,0,0,1,2.14,1.64c.81.79,1.93,1.77,1.79,3.32a3,3,0,0,1-1.16,1.89,7.55,7.55,0,0,1-1.89,1.17c-.62-.93-1.3-1.79-1.92-2.72-.58.47-1.32.88-1.33,1.83a2,2,0,0,0,.15.66c.56,1.5,2.67,2.62,3.46,3.81a8,8,0,0,1-7.24-2.68,14,14,0,0,1-3.2-5.77c-.89.79-.89,2.73-.58,4a12.34,12.34,0,0,0,1.58,3.53,18.8,18.8,0,0,0,4.17,4.71,3.35,3.35,0,0,1,.7.54,5.29,5.29,0,0,1-3.15.78,6.13,6.13,0,0,1-2.83-1.11c-1.59-1.06-2.91-2.49-4.43-3.49a3.21,3.21,0,0,0,.62,2.53c.34.56.72,1.07,1.07,1.55.75,1,1.65,2,1.61,3.56-1.75-.15-2.87-.95-4.29-1.44a13.49,13.49,0,0,1-1.3,2.25,3.24,3.24,0,0,0-.76,2.62c-1.93-.75-2.69-2.78-3.54-4.62a12.76,12.76,0,0,0-3.27-4.89,29.23,29.23,0,0,0,1.46,4.95c.5,1.53,1.05,3.61.39,5.32a1.26,1.26,0,0,1-.94-.13c-.8-.48-1.13-1.58-1.81-2.17-.52,1.29-1.47,2.16-1.68,3.75a3.35,3.35,0,0,1-2.58-2.85,7.24,7.24,0,0,1,.53-4.57c-1.49.24-1.79,1.85-1.9,3.44a23.93,23.93,0,0,0,.28,5,17.2,17.2,0,0,1-4.62-2,8.39,8.39,0,0,0-5.23-1.18,3.22,3.22,0,0,0,.94.58c1,.51,2.21,1,3.19,1.59a8.19,8.19,0,0,1,3,3.37c-.89-.54-2.8-.15-3.76.29-.32.15-.78.46-.79.71,0,.51.89.59,1.33.67.06.17-.14.29-.23.39a2.6,2.6,0,0,1-.35.32,3.23,3.23,0,0,1-3.16-.27c-2.62-1.41-4.52-3.93-6-6.32A5.31,5.31,0,0,0,175,169.1a24.85,24.85,0,0,0,4.12,4,14.1,14.1,0,0,1,2.08,2c-1.78.19-4.83-.22-6.18.57a1.26,1.26,0,0,0-.71,1,3.06,3.06,0,0,0,.58,1.73,4,4,0,0,1-2.55-.59c-2-1.17-3.24-3.18-4.73-4.87a8.42,8.42,0,0,0,.85,3.53,7.59,7.59,0,0,1,.88,3.5c-.11,1.49-1.21,2.15-2.36,2.71a1.55,1.55,0,0,1-.25-.41,19.27,19.27,0,0,0-3.76-5.9,24.21,24.21,0,0,0-5.87-4.37c.88,1.86,2.13,3.51,3.17,5.35.88,1.55,2.19,4.25,1,6.56-1.48.06-2-1-2.71-2.12a9.62,9.62,0,0,0-1.49-2c-.37-.32-1.51-.88-1.6.05a2.24,2.24,0,0,0,.65,1.42,11.46,11.46,0,0,1,.82,1.24,5.46,5.46,0,0,1-2.39,1.21,18,18,0,0,1-2.92-.06,3.08,3.08,0,0,1-.38,0c-.27-.06-.71-.74-.88-1a4.78,4.78,0,0,1-.65-1.24c-.3-1-.15-2.34-.35-3.4a1.08,1.08,0,0,0-1.15.53,9.4,9.4,0,0,0-.7,1.75,4.87,4.87,0,0,1-3.78,3.6,2.66,2.66,0,0,1-.6-1.1c-.48-1.7.81-2.73,1.72-3.33a1.55,1.55,0,0,0-1.56-.22c-1.33.52-1.84,2.28-3.16,2.79a2.82,2.82,0,0,1,.63-1.82,18.33,18.33,0,0,1,3.67-3.84,13.45,13.45,0,0,1,6.84-3.22,6.45,6.45,0,0,0-4.76.1,19,19,0,0,0-6.75,4.61,28.35,28.35,0,0,0-2.06,2.22c-.2.23-.47.72-.65.74s-.62-.41-.67-.66a2.83,2.83,0,0,1,.4-1.6c.73-1.58,2.5-3.82,1.17-5.72-1,.07-1.38,1.1-1.64,1.9a16.45,16.45,0,0,1-1,2.55,5.76,5.76,0,0,1-4.16,2.95c-1.38-2.46,2-3.75,1.06-6.17a9,9,0,0,1-1.82,1.52,4,4,0,0,0-2,2.35c-1.44.57-.48-1.52-.83-2.21-1,0-1.51.61-2.14,1a1.38,1.38,0,0,1,.34-.52c.92-1.18,2-2.29,3-3.49a7,7,0,0,0,1.94-5.34,4.94,4.94,0,0,0-.82,1.19,26.84,26.84,0,0,1-2.55,3.65,12.28,12.28,0,0,1-5,3.34c.57-2.31-1.92-2.85-4-2.56-.36-1.39,1.42-1,2.34-1.24a2,2,0,0,0-2.13-1.09,9.23,9.23,0,0,1-3,0c.27-.84.94-1.21,2.18-1.14s2.37.46,3.62.44a4.67,4.67,0,0,0,3.56-1.51c-1.55-.81-3.62.26-5.39.07a.91.91,0,0,1,.34-1.15,10.82,10.82,0,0,1,1.55-1c.51-.3,1.15-.62,1.13-1.33a5.62,5.62,0,0,0-2.11.93,19,19,0,0,1-4.22,1.93,4,4,0,0,1-2.61,0,2.76,2.76,0,0,1,1.16-2,13.88,13.88,0,0,1,1.86-1.31,9.82,9.82,0,0,0,3.44-2.93c-2.79,1.13-5.43,2.4-8.9,2.86a1.85,1.85,0,0,1-.19-1c.1-1.05,1.16-1.6,1.6-2.32a2.4,2.4,0,0,0-1.28,0c-.45.06-.88.16-1.29.19a4.22,4.22,0,0,1,2.21-1.52,41.33,41.33,0,0,0,5-2.4,4.53,4.53,0,0,0,1.81-1.87,17.69,17.69,0,0,0-4.53,1.25c-1.75.63-4.19,1.59-6.15.71-1-2.09,4.08.28,3.8-1.62-.12-.9-2.28-.65-3.31-.68-1.36-.05-2.43-.24-2.9-1.11.48.06,1.42.32,1.63-.13s-.61-1.57-.82-1.87c-.47-.64-.84-1.09-1.17-1.54.89.19,1.77.49,2.69.72A55.14,55.14,0,0,0,117,153c-.15-1.27-1.71-1.28-3-1.49-2.63-.43-5.06-1-5.85-3.19a7.47,7.47,0,0,1,3-.49,24.24,24.24,0,0,0,4.49.25,6.34,6.34,0,0,0-4.3-1.78,19.55,19.55,0,0,0-5.45.7c-.61.14-1.08.22-1.5-.19.19-.43.83-.49,1.31-.61a15.25,15.25,0,0,0,3.64-1.2c.12-.07.55-.33.55-.39s-1-.49-1.16-.54a7.38,7.38,0,0,0-4.2.61c0-.2.14-.39.24-.55a4.56,4.56,0,0,1,4-1.94c2.18-.05,4.07.6,6.23.51a1.56,1.56,0,0,0-.52-.34,14.12,14.12,0,0,0-4.79-1.67,12.05,12.05,0,0,0-6.35.85c0-.13.1-.23.17-.32a4.07,4.07,0,0,1,2.41-1.46,19.63,19.63,0,0,1,4.17-.12,15.9,15.9,0,0,0,4.07-.34,6.85,6.85,0,0,0,2.93-1.46c-2.13-.64-4.76-.63-7.07-1a9.28,9.28,0,0,1-4.93-2.16c-.16-.14-.38-.28-.43-.51a7.47,7.47,0,0,1,5.24-.94c1.83.29,3.43.93,5.54.83-2.26-2-6-2.61-8.37-4.52-.17-.13-.33-.3-.49-.44s-.36-.25-.39-.45a5.78,5.78,0,0,1,5.09,1c.38-.27.33-.77.12-1.22-.32-.69-1.06-1.37-1.24-1.93a9.61,9.61,0,0,1,2.62,1.21,43.53,43.53,0,0,0,5.11,2.58,12,12,0,0,0,2.24.63,3.31,3.31,0,0,0,.83.09c.16,0,.37-.24.56-.36a3.61,3.61,0,0,1,2.11-.58,3.66,3.66,0,0,0,2.63-.94c-2.31-.73-5.46-.23-7.94-.69a6.88,6.88,0,0,1-5-3.65c1.72-.64,2.93,1,4.63.35.53-1-.64-1.15-1.51-1.23-2.13-.2-3.84-.38-4.28-2.27a5,5,0,0,1,1.22-.3c3.36-.29,4.95,2.37,8.47,1.66a7.5,7.5,0,0,0-2-1.33c-.72-.39-1.47-.79-2.17-1.22-1.37-.83-2.8-1.81-2.74-4.07a2.4,2.4,0,0,1,.7.34c1.62.85,3.29,1.76,5.08,2.51a16.06,16.06,0,0,0,7.18,1.46,2.34,2.34,0,0,0-1.23-1.06c-1.5-.81-3.41-1.24-5-1.91-2.23-.92-4.17-2.07-5.24-4,5-.31,8.61,1.08,13.06,1.42a3.28,3.28,0,0,0-2.35-1.53c-2.94-.83-6.64-1.08-8.53-3a17.2,17.2,0,0,1,6.73-1.79,7.76,7.76,0,0,1,5.87,2.53c.33-4-3.43-4.21-6.5-4.89-1.71-.38-3.45-.84-3.48-2.91,2-.91,4.34-.06,6,.76a25.09,25.09,0,0,0,3.46,1.69,2,2,0,0,0-.61-1.35,8.56,8.56,0,0,0-1.93-1.36c-2-1.21-4.32-2.26-5.65-4.17a6.46,6.46,0,0,1,3.6,1.27c1.93,1.33,3.42,3,5.55,4.2a5.34,5.34,0,0,0,3.93.68,18.08,18.08,0,0,0-1.37-1.2,30.66,30.66,0,0,1-4-3.84,9.42,9.42,0,0,1-2.54-7.68c2.74-.48,4.29,1,5.22,2.78a14.9,14.9,0,0,1,1.62,6.69c.27,0,.43-.28.59-.46,1.16-1.38.94-4.41.43-6.51a18.83,18.83,0,0,0-2.79-6.15c3.57,1.11,5.7,3.85,8.77,5.65a7.38,7.38,0,0,0,4.77,1.15,4.75,4.75,0,0,0-.56-.41,21.4,21.4,0,0,1-4.07-3.21c-1.34-1.4-2.74-2.93-2.9-5.49a8.21,8.21,0,0,1,7.35,3.45,15.56,15.56,0,0,1,3,8c1.49-.35,1.74-2.28,1.72-4a14.42,14.42,0,0,0-.36-3.16,5.08,5.08,0,0,0-1.38-2.1,7.67,7.67,0,0,1-1.45-2c-.52-1.32.7-1.91,1.81-2.07,1.05,3.1,1.29,7,2.64,9.84C153.31,92,151,86.18,155,86.34c.95,1.87,0,4.32-.16,6.48A6.14,6.14,0,0,0,156.08,97c1-2,1.3-4.4,2.35-6.26a9.89,9.89,0,0,1,4.6-4c.44,4-.85,6.94-1.46,10.17a2.7,2.7,0,0,0,2-2c.36-1,.58-2.1.87-3.1.59-2.1,1.48-3.85,3.27-4.71A20.86,20.86,0,0,1,168,98.23c4-.91,3.23-8.1,1.76-11.32,4.67-.6,3,5.28,4.56,7.9,1.24-2.14.51-6.2,1.69-8.4,1.17.14,1.92.62,1.84,2.06a18.78,18.78,0,0,1-.69,2.9c-.12.5-.31,1.23.19,1.35s.85-.27,1.1-.57a3.29,3.29,0,0,0,.76-2.76,4,4,0,0,1,1.92,2.41,6.72,6.72,0,0,1-.27,3.72,13,13,0,0,1-3.37,5.19c.24-.09.62,0,.69-.28a2.12,2.12,0,0,0,1.28-.33,6.68,6.68,0,0,0,3.83-4.92,12.29,12.29,0,0,0-1-7.36,5.7,5.7,0,0,1-.4-.83,1.09,1.09,0,0,1,.06-.84c.46,0,.73.45,1,.76.78.93,1.45,2,2.19,3,.47-.54.23-1.43.29-2.15.1-1.24,1.11-1.75,2.23-2-.16,3.13-.16,6.61.89,8.86a34.89,34.89,0,0,1,1.6-5,7.41,7.41,0,0,1,3.43-3.25,19.58,19.58,0,0,1-.22,6.68,9.29,9.29,0,0,1-2.83,4.39c6-.38,5.75-6.92,9.93-9.11-1.25,2.92-3.25,5.12-3.25,9.26,1.34-.14,1.56-1.69,1.94-2.84.79-2.36,2.12-4,4.84-4.55a3.16,3.16,0,0,1-1.08,2.24,9.18,9.18,0,0,0-1.4,1.89,1.4,1.4,0,0,0,1.88,0c.84-.82,1.25-2.38,2.85-2.54a26.68,26.68,0,0,1-2.51,4.41,7.94,7.94,0,0,0-1.53,5.27c1.29.24,1.48-1.11,1.71-2.14.4-1.78,1-3.44,2.66-4a2.35,2.35,0,0,1,.5.89,5.93,5.93,0,0,1,.29,3.48c-.31,1.47-.93,2.81-1.13,4.29a2.87,2.87,0,0,0,1.69-1.38,11.46,11.46,0,0,0,1.67-7.29,7.56,7.56,0,0,0,2.5,2.4,1.83,1.83,0,0,0,1.19.33c.26-.36,0-.9-.16-1.21a2.44,2.44,0,0,1,.51,1.66,12.42,12.42,0,0,1-1.34,3.18" />
            <path class="cls-2" d="M198.9,110a.67.67,0,0,0,.52.25c.47,0,.65-.92.87-1.34a1.69,1.69,0,0,1,1.21-1c.33,1.89-.85,2.93-1.9,3.74a22.3,22.3,0,0,1-3.71,2.13c.78.48,2.14.08,2.93-.2a11.5,11.5,0,0,0,3.27-1.86,5.83,5.83,0,0,0,1-1,2.3,2.3,0,0,1,.28-.34.7.7,0,0,1,.6,0,1.63,1.63,0,0,1-.64,1.18,3.91,3.91,0,0,1-1,.84c.91.56,1.88-.54,2.71-.76.9,1.39-.28,2.66-1.12,3.26a8.94,8.94,0,0,1-3.64,1.43c0,.1.2.18.34.23a2.41,2.41,0,0,0,1.09.11,8.14,8.14,0,0,0,2.74-1,11.83,11.83,0,0,1,2.74-1c.76.64.18,1.73-.39,2.26a6.12,6.12,0,0,1-1.31.9,8.12,8.12,0,0,1-3.41,1.06c.87,1.17,2.8-.08,3.65-.59a1.21,1.21,0,0,1,.36,1.19c-.22.71-1.2,1.16-1.62,1.6a2.48,2.48,0,0,0,2.81-1.44,6.67,6.67,0,0,0,.8-2.63c1.26-.14.5,1.18.26,1.76a2.11,2.11,0,0,0-.24,1.69c.14,0,.21-.16.31-.26s.67-.72,1.16-.64a.55.55,0,0,1,.39.51,2.11,2.11,0,0,1-.7,1.65,2.55,2.55,0,0,1-2.12.78c1.29.45,2.51-.39,3.63-.59a4.29,4.29,0,0,1-2.36,2,8.39,8.39,0,0,1-5.82.37c.17.68.92.91,1.6,1.07a9.1,9.1,0,0,0,6.48-1.21,5,5,0,0,1-.66,1,2.73,2.73,0,0,0-.72.92c.23.18.61.1.94.06s.67-.11,1-.14c-.06,1.22-1.63,1.09-2.92,1.23a3.46,3.46,0,0,0-2.17.81c1.88.1,3.37.61,5.33.63a3.8,3.8,0,0,1-3.32,2,10.76,10.76,0,0,1-4.63-.53c.19,1,1.34,1.38,2.43,1.63a13,13,0,0,0,4.58.19c.07.05,0,.12,0,.14a7.08,7.08,0,0,1-2.79,1.25c-1.11.33-2.31.62-3.39,1-2.21.69-4.29,1.54-5,3.65a43.8,43.8,0,0,1,4.9-2.12,21.91,21.91,0,0,1,5.67-1.4c.33,1.15-1.16.93-2,1.07a2.28,2.28,0,0,0-1.55.83c.69,1.09,2.78-.17,3.7.57a2.12,2.12,0,0,1,.48.69,4.35,4.35,0,0,1-1.19.82,3.93,3.93,0,0,1-1.52.47c-1.43.11-2.57-.53-4-.44a2.31,2.31,0,0,0,.53.38,10.05,10.05,0,0,1,1.6,1.23,3.09,3.09,0,0,1,1.33,2.47,2.25,2.25,0,0,1-.86,1.42,5.77,5.77,0,0,1-1.42.87c-.46-.69-1-1.34-1.43-2-.44.35-1,.66-1,1.36a1.8,1.8,0,0,0,.11.5c.43,1.12,2,2,2.59,2.85a6,6,0,0,1-5.41-2,10.38,10.38,0,0,1-2.39-4.31c-.66.6-.67,2.05-.43,3a9,9,0,0,0,1.18,2.64,14.16,14.16,0,0,0,3.11,3.52,2.31,2.31,0,0,1,.53.4,3.92,3.92,0,0,1-2.36.58,4.53,4.53,0,0,1-2.11-.83c-1.19-.79-2.18-1.86-3.31-2.6a2.4,2.4,0,0,0,.46,1.89c.25.41.54.8.8,1.16a4.14,4.14,0,0,1,1.2,2.66,12.37,12.37,0,0,1-3.21-1.08,10.18,10.18,0,0,1-1,1.68,2.36,2.36,0,0,0-.57,2c-1.45-.55-2-2.07-2.65-3.44a9.5,9.5,0,0,0-2.44-3.66,22,22,0,0,0,1.09,3.7,6.28,6.28,0,0,1,.29,4,.9.9,0,0,1-.7-.1c-.6-.36-.85-1.18-1.35-1.62-.39,1-1.1,1.61-1.26,2.8a2.51,2.51,0,0,1-1.93-2.13,5.44,5.44,0,0,1,.4-3.41c-1.11.18-1.34,1.38-1.42,2.56a18.16,18.16,0,0,0,.21,3.74,12.79,12.79,0,0,1-3.45-1.48,6.23,6.23,0,0,0-3.91-.89,2.19,2.19,0,0,0,.7.44,25.15,25.15,0,0,1,2.38,1.19,6,6,0,0,1,2.27,2.51,3.77,3.77,0,0,0-2.8.22c-.24.11-.58.35-.59.53,0,.38.67.44,1,.5.05.13-.1.22-.17.29a1.45,1.45,0,0,1-.26.24,2.44,2.44,0,0,1-2.37-.2,12.9,12.9,0,0,1-4.48-4.72,4,4,0,0,0,.8,3.08,18.59,18.59,0,0,0,3.08,3,11.49,11.49,0,0,1,1.55,1.48c-1.33.15-3.61-.16-4.62.43a1,1,0,0,0-.53.79,2.31,2.31,0,0,0,.43,1.29,3,3,0,0,1-1.9-.44c-1.49-.88-2.42-2.38-3.53-3.64a6.34,6.34,0,0,0,.63,2.64,5.73,5.73,0,0,1,.66,2.61c-.09,1.12-.91,1.61-1.77,2a.87.87,0,0,1-.18-.31,14.42,14.42,0,0,0-2.82-4.41,17.67,17.67,0,0,0-4.38-3.26c.65,1.39,1.59,2.63,2.37,4,.66,1.16,1.64,3.19.71,4.9-1.1.06-1.49-.76-2-1.58a7.57,7.57,0,0,0-1.11-1.52c-.28-.23-1.13-.65-1.2.05a1.64,1.64,0,0,0,.49,1,10.42,10.42,0,0,1,.61.93,4.12,4.12,0,0,1-1.78.91,14.74,14.74,0,0,1-2.19-.05c-.1,0-.22,0-.28,0s-.53-.55-.66-.75a3.7,3.7,0,0,1-.48-.92c-.23-.75-.12-1.75-.27-2.55a.8.8,0,0,0-.85.41,6,6,0,0,0-.53,1.3,3.65,3.65,0,0,1-2.82,2.69,1.9,1.9,0,0,1-.45-.83,2.25,2.25,0,0,1,1.29-2.48,1.18,1.18,0,0,0-1.17-.17c-1,.39-1.38,1.71-2.37,2.09a2.07,2.07,0,0,1,.48-1.36,13.58,13.58,0,0,1,2.74-2.87,10.16,10.16,0,0,1,5.11-2.41,4.85,4.85,0,0,0-3.56.08,14.21,14.21,0,0,0-5,3.44c-.5.47-1,1.07-1.54,1.66-.15.17-.35.54-.49.55s-.46-.3-.5-.48a2.28,2.28,0,0,1,.3-1.2c.55-1.18,1.87-2.86.88-4.27-.79,0-1,.82-1.23,1.42a11.34,11.34,0,0,1-.73,1.9,4.31,4.31,0,0,1-3.11,2.2c-1-1.84,1.52-2.8.79-4.61a6.47,6.47,0,0,1-1.36,1.14c-.62.45-1.32.88-1.48,1.76-1.08.42-.36-1.14-.62-1.66-.72,0-1.13.46-1.6.75a1,1,0,0,1,.25-.39c.69-.88,1.51-1.71,2.23-2.6a5.3,5.3,0,0,0,1.45-4,3.43,3.43,0,0,0-.61.89,20.56,20.56,0,0,1-1.91,2.73,9.22,9.22,0,0,1-3.74,2.49c.43-1.72-1.43-2.13-3-1.9-.27-1.05,1.06-.75,1.75-.94a1.54,1.54,0,0,0-1.59-.81,6.59,6.59,0,0,1-2.21,0c.2-.63.7-.9,1.62-.85s1.77.34,2.71.33a3.49,3.49,0,0,0,2.66-1.13c-1.16-.6-2.7.2-4,.05a.69.69,0,0,1,.24-.86,8.5,8.5,0,0,1,1.16-.71c.39-.23.86-.47.85-1a4.46,4.46,0,0,0-1.58.69,14.25,14.25,0,0,1-3.15,1.45,3,3,0,0,1-2,0A2.09,2.09,0,0,1,126,158a10.82,10.82,0,0,1,1.38-1,7,7,0,0,0,2.57-2.19,25.36,25.36,0,0,1-6.64,2.14,1.27,1.27,0,0,1-.14-.75c.07-.78.86-1.19,1.19-1.73a1.83,1.83,0,0,0-1,0c-.33,0-.66.11-1,.14a3.21,3.21,0,0,1,1.65-1.14,30.72,30.72,0,0,0,3.74-1.79,3.4,3.4,0,0,0,1.36-1.4,13.54,13.54,0,0,0-3.39.93c-1.31.47-3.13,1.2-4.59.53-.71-1.56,3,.22,2.84-1.21-.1-.67-1.71-.48-2.48-.51-1,0-1.82-.18-2.16-.82.36,0,1.06.23,1.22-.1s-.46-1.17-.62-1.39c-.35-.48-.63-.82-.87-1.16.66.14,1.32.37,2,.54a41.87,41.87,0,0,0,6.59,1.13c-.11-1-1.27-1-2.22-1.11-2-.32-3.78-.72-4.37-2.38a5.45,5.45,0,0,1,2.2-.37,18.31,18.31,0,0,0,3.36.19,4.76,4.76,0,0,0-3.22-1.33,15,15,0,0,0-4.07.52c-.45.11-.8.17-1.12-.14.15-.32.63-.36,1-.46a11.72,11.72,0,0,0,2.72-.89,1.9,1.9,0,0,0,.41-.29c0-.14-.71-.37-.86-.41a5.46,5.46,0,0,0-3.14.46c0-.15.1-.29.18-.42a3.39,3.39,0,0,1,3-1.44c1.63,0,3,.44,4.65.38a1.21,1.21,0,0,0-.39-.26,10.74,10.74,0,0,0-3.58-1.25,9.14,9.14,0,0,0-4.74.64c0-.1.07-.17.12-.24a3.07,3.07,0,0,1,1.81-1.09,15.06,15.06,0,0,1,3.11-.09,11.71,11.71,0,0,0,3-.25,5.13,5.13,0,0,0,2.19-1.09,45.63,45.63,0,0,0-5.28-.76,7,7,0,0,1-3.69-1.62c-.12-.1-.28-.21-.31-.38a5.52,5.52,0,0,1,3.91-.7,18.51,18.51,0,0,0,4.14.62c-1.69-1.5-4.47-2-6.26-3.38l-.36-.33c-.11-.09-.27-.18-.29-.33a4.27,4.27,0,0,1,3.8.78c.28-.2.25-.58.09-.91-.24-.52-.79-1-.93-1.45a7.62,7.62,0,0,1,2,.91,33.2,33.2,0,0,0,3.82,1.92,7.87,7.87,0,0,0,1.67.48,3.17,3.17,0,0,0,.63.07,2,2,0,0,0,.41-.27,2.68,2.68,0,0,1,1.58-.44,2.73,2.73,0,0,0,2-.7c-1.73-.54-4.08-.17-5.93-.52a5.15,5.15,0,0,1-3.75-2.72c1.28-.48,2.19.72,3.46.26.4-.73-.48-.86-1.13-.92-1.59-.15-2.87-.28-3.19-1.7a3.82,3.82,0,0,1,.9-.22c2.51-.21,3.71,1.77,6.33,1.24a5.38,5.38,0,0,0-1.49-1c-.54-.29-1.1-.6-1.62-.92-1-.61-2.09-1.35-2.05-3a1.72,1.72,0,0,1,.53.25c1.21.64,2.45,1.32,3.79,1.87a12.09,12.09,0,0,0,5.37,1.1,1.76,1.76,0,0,0-.92-.8c-1.13-.6-2.55-.92-3.76-1.43a7.35,7.35,0,0,1-3.92-3c3.72-.23,6.43.8,9.76,1.06a2.43,2.43,0,0,0-1.76-1.14c-2.19-.63-5-.81-6.37-2.23a12.86,12.86,0,0,1,5-1.34,5.84,5.84,0,0,1,4.39,1.89c.24-3-2.56-3.15-4.86-3.65-1.28-.29-2.58-.63-2.6-2.18,1.51-.68,3.24,0,4.45.57a18.17,18.17,0,0,0,2.59,1.26,1.52,1.52,0,0,0-.46-1,6.41,6.41,0,0,0-1.44-1c-1.51-.89-3.23-1.68-4.22-3.11a4.86,4.86,0,0,1,2.69,1,50,50,0,0,0,4.14,3.14,4,4,0,0,0,2.95.51c-.32-.32-.67-.6-1-.9a23,23,0,0,1-3-2.87,7,7,0,0,1-1.9-5.74,3.51,3.51,0,0,1,3.9,2.08,11.07,11.07,0,0,1,1.21,5c.2,0,.32-.21.44-.35.86-1,.7-3.29.32-4.86a14,14,0,0,0-2.09-4.6c2.67.84,4.27,2.88,6.55,4.23a5.58,5.58,0,0,0,3.57.86,2.45,2.45,0,0,0-.41-.31,15.74,15.74,0,0,1-3.05-2.4,6.23,6.23,0,0,1-2.16-4.1,6.14,6.14,0,0,1,5.49,2.57,11.73,11.73,0,0,1,2.26,6c1.11-.26,1.3-1.71,1.29-3a11.09,11.09,0,0,0-.27-2.37,3.91,3.91,0,0,0-1-1.57,5.7,5.7,0,0,1-1.09-1.49c-.39-1,.53-1.43,1.36-1.55.78,2.32,1,5.26,2,7.35.91-1.89-.81-6.21,2.2-6.08.71,1.39,0,3.22-.12,4.83a4.62,4.62,0,0,0,.9,3.16c.73-1.51,1-3.28,1.76-4.67a7.33,7.33,0,0,1,3.44-3c.33,3-.64,5.18-1.09,7.6a2,2,0,0,0,1.46-1.5c.27-.72.43-1.57.64-2.32A5.09,5.09,0,0,1,165.6,99a15.6,15.6,0,0,1,.22,8.31c3-.68,2.41-6,1.31-8.46,3.49-.45,2.26,4,3.41,5.9.93-1.59.38-4.63,1.26-6.27.87.1,1.44.46,1.37,1.54a13.81,13.81,0,0,1-.51,2.16c-.09.38-.23.92.14,1s.64-.2.83-.43a2.46,2.46,0,0,0,.57-2.06,3,3,0,0,1,1.42,1.8,5,5,0,0,1-.19,2.79,9.9,9.9,0,0,1-2.52,3.88c.17-.07.46,0,.52-.22a1.49,1.49,0,0,0,.95-.25,5,5,0,0,0,2.86-3.67,9.15,9.15,0,0,0-.75-5.5,4.88,4.88,0,0,1-.29-.62.78.78,0,0,1,0-.63c.35,0,.55.34.74.57.59.69,1.08,1.52,1.64,2.26.35-.41.17-1.07.21-1.61.08-.93.83-1.31,1.67-1.45-.12,2.33-.12,4.93.66,6.61a27.62,27.62,0,0,1,1.2-3.76,5.51,5.51,0,0,1,2.56-2.42,14.64,14.64,0,0,1-.16,5,7,7,0,0,1-2.11,3.28c4.51-.29,4.29-5.18,7.41-6.81-.93,2.19-2.43,3.83-2.42,6.92,1-.1,1.16-1.26,1.45-2.12a4.49,4.49,0,0,1,3.61-3.4,2.34,2.34,0,0,1-.8,1.67,6.45,6.45,0,0,0-1.05,1.42,1,1,0,0,0,1.4,0c.63-.61.94-1.78,2.13-1.9a19.2,19.2,0,0,1-1.87,3.3,5.89,5.89,0,0,0-1.15,3.94c1,.17,1.11-.83,1.28-1.6.3-1.33.74-2.57,2-3a1.82,1.82,0,0,1,.37.67,4.39,4.39,0,0,1,.22,2.59c-.23,1.1-.7,2.11-.84,3.21a2.19,2.19,0,0,0,1.26-1,8.6,8.6,0,0,0,1.25-5.45,5.65,5.65,0,0,0,1.87,1.8,1.39,1.39,0,0,0,.88.24c.2-.27,0-.67-.11-.9a1.89,1.89,0,0,1,.38,1.24,9.53,9.53,0,0,1-1,2.38" />
            <path class="cls-5" d="M283.42,348.78l7.21-.47q-.19-4.28-.57-8.64a70.33,70.33,0,0,0-1-7.41c-.4-2-.89-3-1.49-3-.23,0-.52.26-.85.77-.86,1.34-1.62,4.15-2.29,8.41q-.65,4.44-1,10.38" />
            <path class="cls-5" d="M107.33,362.74h-5a4.11,4.11,0,0,1-4.14-4.13V272.78a4,4,0,0,1,1.21-2.93,3.85,3.85,0,0,1,2.81-1.2l4.94-.12q16.79,0,24,3.51t7.24,13.15a17.22,17.22,0,0,1-2.12,7.47A13.26,13.26,0,0,1,128.7,299a.85.85,0,0,0,0,1.61,26.5,26.5,0,0,1,13,9.53q5,6.78,5,17.93,0,21.36-20,30.44a51.11,51.11,0,0,1-19.42,4.25m4.83-65.6,3.1-.46a55.76,55.76,0,0,0,7.47-1.61,13.13,13.13,0,0,0,5.86-3.39q2.29-2.35,2.29-7.29a6.52,6.52,0,0,0-3-5.86,19.14,19.14,0,0,0-7.13-2.7,44.91,44.91,0,0,0-8-.75,1.8,1.8,0,0,0-1.43.58,2,2,0,0,0-.52,1.37v18.62a1.46,1.46,0,0,0,.4,1.09,1.32,1.32,0,0,0,1,.4m2,58.14a43.42,43.42,0,0,0,10.11-3q15.85-7,15.86-24.24,0-11.26-6.67-17.12-7.82-6.31-20.56-6.32a2.09,2.09,0,0,0-1.44.57,1.94,1.94,0,0,0-.63,1.5V352.4a2.76,2.76,0,0,0,.86,2,2.62,2.62,0,0,0,1.9.87Z" />
            <path class="cls-5" d="M169.62,362.05q-7,0-11.37-3.79-5.06-4.47-7.13-18.27a.85.85,0,0,0-.28-.69,1,1,0,0,0-.64-.23h-.68a1.16,1.16,0,0,1-1.15-1.14l.11-2.65c0-.45.37-.84,1.09-1.14s1.09-.65,1.09-1l-.11-2.87a78.29,78.29,0,0,1,3.56-24.13,18.5,18.5,0,0,1,4.83-7.7,16.43,16.43,0,0,1,6-3.56,17.25,17.25,0,0,1,4.71-.92,10.94,10.94,0,0,1,9,4.31Q182,302.54,182,310q-.22,13.56-8.16,21.25-6.78,5.87-13.44,7a1.11,1.11,0,0,0-.8,1A37.62,37.62,0,0,0,163,352q2.6,5.24,6.61,5.23a7.36,7.36,0,0,0,5.8-2.53,12.53,12.53,0,0,0,2.93-6.15,32.87,32.87,0,0,0,.69-5.91,1,1,0,0,1,1-1l2.64-.23a1.21,1.21,0,0,1,.8.29,1.06,1.06,0,0,1,.35.86q0,9.89-4.83,15.63a12.37,12.37,0,0,1-9.42,3.9m-9.76-28.72a24.53,24.53,0,0,0,10.68-5.63q6.54-6.31,6.66-17.69,0-10.8-7.58-11.15-4.49,0-7.81,10.52a75.47,75.47,0,0,0-3.33,22.92.91.91,0,0,0,.34.74,1.19,1.19,0,0,0,.81.29Z" />
            <path class="cls-5" d="M243.62,363.55a6.07,6.07,0,0,1-2.81-.58,2.23,2.23,0,0,1-1.09-2.18V339l-20.11,1.38v19.19a2.63,2.63,0,0,1-.86,1.89,2.72,2.72,0,0,1-2,.86h-6.09a2.51,2.51,0,0,1-2-.86,2.8,2.8,0,0,1-.75-1.89V341l-1.37.11a1.88,1.88,0,0,1-1.38-.57,2.52,2.52,0,0,1-.69-1.61c-.08-.69-.16-1.45-.23-2.3,0-1.07.32-1.72,1-2a8.41,8.41,0,0,1,2.7-.34V272.9a2.78,2.78,0,0,1,.75-2,2.64,2.64,0,0,1,2-.8h6.09a2.86,2.86,0,0,1,2,.8,2.6,2.6,0,0,1,.86,2v60.66l20.11-1.38V292.23a2.8,2.8,0,0,1,.8-2.07,2.66,2.66,0,0,1,2-.81,6.68,6.68,0,0,1,2.81.52c.73.35,1.09,1.13,1.09,2.36v39.61l.69-.12a2.41,2.41,0,0,1,1.61.58,2.15,2.15,0,0,1,.75,1.61c0,.69.09,1.45.17,2.29a1.75,1.75,0,0,1-.86,1.78,6.78,6.78,0,0,1-2.36.52v22.29a2.75,2.75,0,0,1-2.76,2.76" />
            <path class="cls-5" d="M266.27,362.75a11.1,11.1,0,0,1-7.56-2.52q-3.36-3-4.74-12.14a.55.55,0,0,0-.19-.46.64.64,0,0,0-.42-.15h-.45a.79.79,0,0,1-.77-.76l.08-1.76c0-.3.24-.56.72-.76s.73-.43.73-.69l-.08-1.91a51.87,51.87,0,0,1,2.37-16,12.14,12.14,0,0,1,3.21-5.11,11,11,0,0,1,4-2.37,11.34,11.34,0,0,1,3.14-.61,7.26,7.26,0,0,1,6,2.86q2.29,2.87,2.29,7.83-.15,9-5.42,14.12a18.73,18.73,0,0,1-8.93,4.66.74.74,0,0,0-.54.68,25.06,25.06,0,0,0,2.26,8.44q1.71,3.46,4.39,3.47a4.91,4.91,0,0,0,3.85-1.68,8.46,8.46,0,0,0,1.95-4.08,22.22,22.22,0,0,0,.45-3.93.7.7,0,0,1,.19-.5.68.68,0,0,1,.5-.19L275,349a.78.78,0,0,1,.53.19.72.72,0,0,1,.23.57q0,6.57-3.21,10.38a8.19,8.19,0,0,1-6.25,2.6m-6.49-19.09a16.28,16.28,0,0,0,7.1-3.74q4.35-4.2,4.42-11.75c0-4.79-1.68-7.25-5-7.41q-3,0-5.2,7A50.32,50.32,0,0,0,258.86,343a.61.61,0,0,0,.23.49.78.78,0,0,0,.53.19Z" />
            <path class="cls-5" d="M297.42,363.82h-2.6a1.57,1.57,0,0,1-1.14-.46,1.59,1.59,0,0,1-.46-1.18c0-.49,0-1.11-.08-1.88q-.08-2.9-.3-7.17l-11.45.76q-.24,3.9-.31,6.49c-.05.56-.07,1.06-.07,1.49a1.48,1.48,0,0,1-.5,1.11,1.62,1.62,0,0,1-1.11.46,1.49,1.49,0,0,1-1.14-.5,1.58,1.58,0,0,1-.46-1.11l.08-1.45q.08-2.52.3-6.33c-1,0-1.55-.54-1.6-1.61s.58-1.55,1.75-1.6a136.32,136.32,0,0,1,3.52-24.43,24.07,24.07,0,0,1,1.26-3.62,10.48,10.48,0,0,1,2-3.13A3.87,3.87,0,0,1,288,318.4q5,0,7.41,8.24a71.87,71.87,0,0,1,2.13,13.74l.15,1.6q.46,4,.69,7.94a1.82,1.82,0,0,1,.69,1.38,1.59,1.59,0,0,1-.54,1.14c.21,3.41.33,6.21.39,8.4l.07,1.37a1.58,1.58,0,0,1-.46,1.11,1.48,1.48,0,0,1-1.14.5m-15.8-13.21,11.07-.69q-.31-6.33-.88-12.78a100.53,100.53,0,0,0-1.49-11q-.92-4.5-2.29-4.5c-.36,0-.79.38-1.3,1.14q-2,3-3.51,12.45-1,6.56-1.6,15.34" />
            <path class="cls-5" d="M303.69,364.12a1.33,1.33,0,0,1-1-.46,1.87,1.87,0,0,1-.5-1.06,1.48,1.48,0,0,1,1-1.53V320.61a1.61,1.61,0,0,1,.5-1.18,1.54,1.54,0,0,1,1.11-.5h2.67a1.54,1.54,0,0,1,1.1.5,1.57,1.57,0,0,1,.5,1.18v40.23l10.23-.23a1.59,1.59,0,0,1,1.11.46,1.48,1.48,0,0,1,.49,1.14,1.58,1.58,0,0,1-.46,1.11,1.4,1.4,0,0,1-1.06.5Z" />
            <path class="cls-5" d="M330.49,363.51H327.2a1,1,0,0,1-.87-.46,1.82,1.82,0,0,1-.35-1.14V321.75h-8.93a1.38,1.38,0,0,1-1.11-.49,1.83,1.83,0,0,1-.42-1.18A1.48,1.48,0,0,1,316,319a1.45,1.45,0,0,1,1.07-.46H341.1a1.36,1.36,0,0,1,1.1.49,1.8,1.8,0,0,1,.42,1.19,1.54,1.54,0,0,1-1.52,1.52h-9.32v40.16a1.67,1.67,0,0,1-.38,1.14,1.14,1.14,0,0,1-.91.46" />
            <path class="cls-5" d="M361.18,363.28c-1.27,0-1.91-.43-1.91-1.3V351.45l-9.61.69v9.23a1.28,1.28,0,0,1-.42.88,1.32,1.32,0,0,1-1,.42h-2.9a1.37,1.37,0,0,1-1.37-1.3v-8.85h-.69a.88.88,0,0,1-.65-.27.93.93,0,0,1-.27-.69,3.1,3.1,0,0,0,0-.61,5.53,5.53,0,0,1,0-.72.79.79,0,0,1,.42-.8,2.62,2.62,0,0,1,1.1-.19H344V319.85a1.3,1.3,0,0,1,1.37-1.38h2.9a1.41,1.41,0,0,1,1,.38,1.33,1.33,0,0,1,.42,1v29.08l9.61-.69V317.17a1.25,1.25,0,0,1,.38-.91,1.34,1.34,0,0,1,1-.38q1.83,0,1.83,1.29V348c.71,0,1.14.12,1.3.38a2.9,2.9,0,0,1,.23,1.37v.46q0,.69-.42.84a5,5,0,0,1-1.11.23V362a1.31,1.31,0,0,1-.38.88,1.21,1.21,0,0,1-.92.42" />
            <path class="cls-5" d="M113.8,293.17l2-.3a35.75,35.75,0,0,0,4.8-1,8.38,8.38,0,0,0,3.76-2.18,6.5,6.5,0,0,0,1.47-4.68,4.22,4.22,0,0,0-1.91-3.77,12.39,12.39,0,0,0-4.58-1.73,29,29,0,0,0-5.16-.48,1.17,1.17,0,0,0-.93.37,1.27,1.27,0,0,0-.33.88v12a1,1,0,0,0,.26.7.86.86,0,0,0,.63.26" />
            <path class="cls-5" d="M116,351.29a27.56,27.56,0,0,0,7.19-2.49q11.28-5.82,11.27-20.14,0-9.35-4.73-14.22-5.56-5.25-14.62-5.25a1.37,1.37,0,0,0-1,.48,1.73,1.73,0,0,0-.44,1.24v38a2.48,2.48,0,0,0,.61,1.67,1.74,1.74,0,0,0,1.35.72Z" />
        </g>
    </g>
</svg>